<?xml version="1.0" encoding="UTF-8" standalone="no"?>
<!-- Created with Inkscape (http://www.inkscape.org/) -->

<svg
   xmlns:dc="http://purl.org/dc/elements/1.1/"
   xmlns:cc="http://creativecommons.org/ns#"
   xmlns:rdf="http://www.w3.org/1999/02/22-rdf-syntax-ns#"
   xmlns:svg="http://www.w3.org/2000/svg"
   xmlns="http://www.w3.org/2000/svg"
   xmlns:sodipodi="http://sodipodi.sourceforge.net/DTD/sodipodi-0.dtd"
   xmlns:inkscape="http://www.inkscape.org/namespaces/inkscape"
   width="128"
   height="128"
   id="svg4359"
   version="1.1"
   inkscape:version="0.48.5 r10040"
   sodipodi:docname="New document 9">
  <defs
     id="defs4361" />
  <sodipodi:namedview
     id="base"
     pagecolor="#ffffff"
     bordercolor="#666666"
     borderopacity="1.0"
     inkscape:pageopacity="0.0"
     inkscape:pageshadow="2"
     inkscape:zoom="0.7"
     inkscape:cx="71.429945"
     inkscape:cy="55.714286"
     inkscape:document-units="px"
     inkscape:current-layer="layer1"
     showgrid="false"
     inkscape:window-width="1536"
     inkscape:window-height="801"
     inkscape:window-x="-8"
     inkscape:window-y="-8"
     inkscape:window-maximized="1" />
  <metadata
     id="metadata4364">
    <rdf:RDF>
      <cc:Work
         rdf:about="">
        <dc:format>image/svg+xml</dc:format>
        <dc:type
           rdf:resource="http://purl.org/dc/dcmitype/StillImage" />
        <dc:title></dc:title>
      </cc:Work>
    </rdf:RDF>
  </metadata>
  <g
     inkscape:label="Layer 1"
     inkscape:groupmode="layer"
     id="layer1"
     transform="translate(0,-924.36218)">
    <rect
       style="fill:#000000;fill-opacity:1;fill-rule:nonzero;stroke:none"
       id="rect4367"
       width="128"
       height="128"
       x="0"
       y="924.36218"
       ry="0" />
    <path
       sodipodi:type="arc"
       style="fill:#ffffff;fill-opacity:1;fill-rule:nonzero;stroke:none"
       id="path4877"
       sodipodi:cx="65.028572"
       sodipodi:cy="92.897202"
       sodipodi:rx="12.248099"
       sodipodi:ry="8.8388348"
       d="m 77.276671,92.897202 a 12.248099,8.8388348 0 1 1 -24.496198,0 12.248099,8.8388348 0 1 1 24.496198,0 z"
       transform="matrix(1.2246798,0,0,1.6970563,-14.63918,859.7104)" />
    <rect
       style="fill:#ffffff;fill-opacity:1;fill-rule:nonzero;stroke:none"
       id="rect4879"
       width="30"
       height="36"
       x="50"
       y="1016.3622" />
    <path
       style="fill:#ffffff;fill-opacity:1;stroke:none"
       d="M 66,84 C 80.801205,83.811757 102,76.843012 102,58 102,33.096072 72.973289,31.887066 66,32 58.482871,32.121742 28.204704,32.513101 28,58 27.854646,76.097432 50.653422,84.195179 66,84 z"
       id="path4881"
       inkscape:connector-curvature="0"
       transform="translate(0,924.36218)"
       sodipodi:nodetypes="sssss" />
    <path
       style="fill:#ffffff;fill-opacity:1;stroke:none"
       d="m 36.653742,966.36218 c 0,0 -2.447977,-0.88647 -2.639767,-7.54971 -0.189832,-6.59523 1.617041,-8.44884 1.617041,-8.44884 C 42.162962,950.23701 52,958.45633 52,958.45633 z"
       id="path4883"
       inkscape:connector-curvature="0"
       sodipodi:nodetypes="csscc" />
    <path
       style="fill:#ffffff;fill-opacity:1;stroke:none"
       d="m 95.346258,966.36218 c 0,0 2.447977,-0.88647 2.639767,-7.54971 0.189832,-6.59523 -1.617041,-8.44884 -1.617041,-8.44884 C 89.837038,950.23701 80,958.45633 80,958.45633 z"
       id="path4883-4"
       inkscape:connector-curvature="0"
       sodipodi:nodetypes="csscc" />
    <path
       style="fill:#ffffff;fill-opacity:1;stroke:none"
       d="m 50.803572,114.60714 c 0,0 -5.770109,0.81483 -9.162074,0.85588 -3.798046,0.046 -6.063922,-0.34426 -8.704812,-4.73214 -1.75538,-2.91659 -1.346259,-4.49684 -4.273025,-6.80553 -2.372992,-1.87186 -5.542497,-1.48256 -5.539112,-2.62704 0.0032,-1.09328 3.974102,-1.671932 5.406817,-1.08674 1.351387,0.55198 4.064016,2.01317 5.563405,4.30738 1.234593,1.88906 3.539212,4.95028 6.836927,5.43 3.545306,0.51575 9.503898,-1.31575 9.503898,-1.31575 z"
       id="path4921"
       inkscape:connector-curvature="0"
       transform="translate(0,924.36218)"
       sodipodi:nodetypes="cssssssscc" />
    <path
       sodipodi:type="arc"
       style="fill:#000000;fill-opacity:1;fill-rule:nonzero;stroke:none"
       id="path4923"
       sodipodi:cx="47.129929"
       sodipodi:cy="111.42719"
       sodipodi:rx="1.5467961"
       sodipodi:ry="0.78918171"
       d="m 48.676725,111.42719 a 1.5467961,0.78918171 0 1 1 -3.093592,0 1.5467961,0.78918171 0 1 1 3.093592,0 z"
       transform="matrix(0.98876705,-0.14946479,0.14946479,0.98876705,-15.493688,932.53183)" />
    <path
       sodipodi:type="arc"
       style="fill:#000000;fill-opacity:1;fill-rule:nonzero;stroke:none"
       id="path4923-8"
       sodipodi:cx="47.129929"
       sodipodi:cy="111.42719"
       sodipodi:rx="1.5467961"
       sodipodi:ry="0.78918171"
       d="m 48.676725,111.42719 a 1.5467961,0.78918171 0 1 1 -3.093592,0 1.5467961,0.78918171 0 1 1 3.093592,0 z"
       transform="matrix(0.91719271,-0.0489894,0.04498674,0.9987993,-5.1190861,927.27834)" />
    <path
       sodipodi:type="arc"
       style="fill:#000000;fill-opacity:1;fill-rule:nonzero;stroke:none"
       id="path4923-8-8"
       sodipodi:cx="47.129929"
       sodipodi:cy="111.42719"
       sodipodi:rx="1.5467961"
       sodipodi:ry="0.78918171"
       d="m 48.676725,111.42719 a 1.5467961,0.78918171 0 1 1 -3.093592,0 1.5467961,0.78918171 0 1 1 3.093592,0 z"
       transform="matrix(0.79209391,0.28760547,-0.29146764,0.94688567,33.847561,916.63102)" />
    <path
       sodipodi:type="arc"
       style="fill:#000000;fill-opacity:1;fill-rule:nonzero;stroke:none"
       id="path4923-8-8-2"
       sodipodi:cx="47.129929"
       sodipodi:cy="111.42719"
       sodipodi:rx="1.5467961"
       sodipodi:ry="0.78918171"
       d="m 48.676725,111.42719 a 1.5467961,0.78918171 0 1 1 -3.093592,0 1.5467961,0.78918171 0 1 1 3.093592,0 z"
       transform="matrix(0.59330025,0.50987374,-0.58479496,0.70312127,72.744606,931.07624)" />
    <path
       sodipodi:type="arc"
       style="fill:#000000;fill-opacity:1;fill-rule:nonzero;stroke:none"
       id="path4923-8-8-2-4"
       sodipodi:cx="47.129929"
       sodipodi:cy="111.42719"
       sodipodi:rx="1.5467961"
       sodipodi:ry="0.78918171"
       d="m 48.676725,111.42719 a 1.5467961,0.78918171 0 1 1 -3.093592,0 1.5467961,0.78918171 0 1 1 3.093592,0 z"
       transform="matrix(0.48060406,0.61724886,-0.71243061,0.57341721,90.131476,937.53247)" />
    <path
       sodipodi:type="arc"
       style="fill:#000000;fill-opacity:1;fill-rule:nonzero;stroke:none"
       id="path4923-8-8-2-4-5"
       sodipodi:cx="47.129929"
       sodipodi:cy="111.42719"
       sodipodi:rx="1.5467961"
       sodipodi:ry="0.78918171"
       d="m 48.676725,111.42719 a 1.5467961,0.78918171 0 1 1 -3.093592,0 1.5467961,0.78918171 0 1 1 3.093592,0 z"
       transform="matrix(0.53231725,0.4828685,-0.57192956,0.62172755,69.892025,935.67323)" />
    <path
       sodipodi:type="arc"
       style="fill:#000000;fill-opacity:1;fill-rule:nonzero;stroke:none"
       id="path4923-8-8-2-4-5-5"
       sodipodi:cx="47.129929"
       sodipodi:cy="111.42719"
       sodipodi:rx="1.5467961"
       sodipodi:ry="0.78918171"
       d="m 48.676725,111.42719 a 1.5467961,0.78918171 0 1 1 -3.093592,0 1.5467961,0.78918171 0 1 1 3.093592,0 z"
       transform="matrix(0.43098413,0.2515054,-0.35425779,0.45940352,48.014182,962.92846)" />
    <path
       style="fill:none;stroke:#ffffff;stroke-width:1px;stroke-linecap:butt;stroke-linejoin:miter;stroke-opacity:1"
       d="m 43.357143,988.61218 c 0,0 -15.098808,0.63796 -21.971591,0.64728 C 13.676061,989.26991 10.5,990.39789 10.5,990.39789"
       id="path5033"
       inkscape:connector-curvature="0"
       sodipodi:nodetypes="csc" />
    <path
       style="fill:none;stroke:#ffffff;stroke-width:1px;stroke-linecap:butt;stroke-linejoin:miter;stroke-opacity:1"
       d="m 42.998822,991.91576 c 0,0 -12.549353,0.47582 -21.703734,1.71871 -8.833364,1.1993 -9.795088,2.2928 -9.795088,2.2928"
       id="path5033-1"
       inkscape:connector-curvature="0"
       sodipodi:nodetypes="csc" />
    <path
       style="fill:none;stroke:#ffffff;stroke-width:1px;stroke-linecap:butt;stroke-linejoin:miter;stroke-opacity:1"
       d="m 87.995948,989.34494 c 13.169482,-0.43002 16.981592,-0.84588 33.741022,0.39675"
       id="path5033-7"
       inkscape:connector-curvature="0"
       sodipodi:nodetypes="cc" />
    <path
       style="fill:none;stroke:#ffffff;stroke-width:1px;stroke-linecap:butt;stroke-linejoin:miter;stroke-opacity:1"
       d="m 89.180185,991.2625 c 10.863935,-0.31556 18.715545,-0.21951 32.003905,2.49628"
       id="path5033-1-1"
       inkscape:connector-curvature="0"
       sodipodi:nodetypes="cc" />
  </g>
</svg>
