<?xml version="1.0" encoding="UTF-8" standalone="no"?>
<!-- Created with Inkscape (http://www.inkscape.org/) -->

<svg
   xmlns:dc="http://purl.org/dc/elements/1.1/"
   xmlns:cc="http://creativecommons.org/ns#"
   xmlns:rdf="http://www.w3.org/1999/02/22-rdf-syntax-ns#"
   xmlns:svg="http://www.w3.org/2000/svg"
   xmlns="http://www.w3.org/2000/svg"
   xmlns:sodipodi="http://sodipodi.sourceforge.net/DTD/sodipodi-0.dtd"
   xmlns:inkscape="http://www.inkscape.org/namespaces/inkscape"
   width="480"
   height="640"
   id="svg5278"
   version="1.1"
   inkscape:version="0.48.5 r10040"
   sodipodi:docname="2.svg">
  <defs
     id="defs5280" />
  <sodipodi:namedview
     id="base"
     pagecolor="#ffffff"
     bordercolor="#666666"
     borderopacity="1.0"
     inkscape:pageopacity="0.0"
     inkscape:pageshadow="2"
     inkscape:zoom="0.7"
     inkscape:cx="177.19574"
     inkscape:cy="275.82676"
     inkscape:document-units="px"
     inkscape:current-layer="layer1"
     showgrid="false"
     inkscape:window-width="1536"
     inkscape:window-height="801"
     inkscape:window-x="-8"
     inkscape:window-y="-8"
     inkscape:window-maximized="1" />
  <metadata
     id="metadata5283">
    <rdf:RDF>
      <cc:Work
         rdf:about="">
        <dc:format>image/svg+xml</dc:format>
        <dc:type
           rdf:resource="http://purl.org/dc/dcmitype/StillImage" />
        <dc:title />
      </cc:Work>
    </rdf:RDF>
  </metadata>
  <g
     inkscape:label="Layer 1"
     inkscape:groupmode="layer"
     id="layer1"
     transform="translate(0,-412.36218)">
    <path
       style="fill:#b10000;fill-opacity:1;stroke:#000000;stroke-width:1px;stroke-linecap:butt;stroke-linejoin:miter;stroke-opacity:1"
       d="m 259.10413,803.23775 -0.82049,8.2835 -23.42317,16.97031 26.26396,22.72844 0.50508,13.13198 -39.39595,-37.37564 z"
       id="path5898"
       inkscape:connector-curvature="0"
       sodipodi:nodetypes="ccccccc" />
    <path
       style="fill:#b10000;fill-opacity:1;stroke:#000000;stroke-width:1px;stroke-linecap:butt;stroke-linejoin:miter;stroke-opacity:1"
       d="m 259.10413,803.23775 c 0,0 19.10645,4.42439 28.78935,4.04061 10.85681,-0.43031 31.8198,-7.07107 31.8198,-7.07107 l -0.50508,78.7919 c 0,0 -18.7676,3.6718 -28.28427,4.04061 -10.4521,0.40506 -31.31473,-2.02031 -31.31473,-2.02031 z"
       id="path5896"
       inkscape:connector-curvature="0"
       sodipodi:nodetypes="csccscc" />
    <path
       style="fill:#005c04;fill-opacity:1;stroke:#000000;stroke-width:1px;stroke-linecap:butt;stroke-linejoin:miter;stroke-opacity:1"
       d="m 180,865.79076 -31.42857,28.57142 -46.42857,7.85715 4.28572,15.71428 45.71428,-9.28571 27.14286,-23.57143 z"
       id="path5844"
       inkscape:connector-curvature="0" />
    <rect
       style="fill:#544701;fill-opacity:1;fill-rule:nonzero;stroke:none"
       id="rect5286"
       width="528.57141"
       height="171.42857"
       x="-22.857143"
       y="922.93359"
       ry="1.7291129" />
    <path
       style="fill:#dddddd;fill-opacity:1;stroke:#585858;stroke-width:1px;stroke-linecap:butt;stroke-linejoin:miter;stroke-opacity:1"
       d="M 42.857143,922.21932 35,870.79075 l 122.14286,-0.71428 -8.57143,52.85714 z"
       id="path5288"
       inkscape:connector-curvature="0" />
    <g
       id="g5834"
       transform="matrix(1.091747,0,0,1.0992002,-13.137602,-46.729943)">
      <path
         sodipodi:nodetypes="csc"
         transform="translate(0,412.36218)"
         inkscape:connector-curvature="0"
         id="path5806"
         d="m 173.21429,378.57143 c 0,0 1.53217,24.83165 10.35713,30 15.6631,9.17311 56.07144,-5.71428 56.07144,-5.71428"
         style="fill:none;stroke:#000000;stroke-width:2;stroke-linecap:butt;stroke-linejoin:miter;stroke-miterlimit:4;stroke-opacity:1;stroke-dasharray:none" />
      <path
         sodipodi:nodetypes="ccccccccccccccccccccccccccccc"
         transform="translate(0,412.36218)"
         inkscape:connector-curvature="0"
         id="path5808"
         d="M 165.71429,378.57143 177.14286,375 l -8.57143,-2.85714 12.85714,-0.71429 -5,-3.57143 15,1.42857 -4.28571,-4.28571 20,2.85714 -5,-3.57143 13.57143,2.85715 -5.71429,-5 12.85714,5.71428 -1.42857,-4.28571 10,8.57143 0,-5.71429 7.50001,16.78571 0.71428,-7.85714 2.14285,33.21429 -8.21428,-26.42857 -0.71429,5.35714 -10.71428,-9.64285 1.07142,5.35713 L 205.71429,375 209.28571,379.28571 190,376.42857 l 2.85714,4.28572 -15.71428,-2.14286 5,2.85714 z"
         style="fill:#3f3306;fill-opacity:1;stroke:#000000;stroke-width:1px;stroke-linecap:butt;stroke-linejoin:miter;stroke-opacity:1" />
      <path
         transform="translate(0,412.36218)"
         inkscape:connector-curvature="0"
         id="path5810"
         d="m 191.64771,409.91156 c -3.23666,-0.54324 -6.53495,-1.74843 -8.11912,-2.96671 -2.61275,-2.00928 -5.12351,-6.99482 -6.73044,-13.36447 -0.92844,-3.68018 -2.32096,-12.1931 -2.04041,-12.47365 0.12278,-0.12279 1.75557,0.0505 3.62841,0.38498 1.87285,0.33452 3.56092,0.51197 3.75127,0.39432 0.54441,-0.33647 0.40471,-1.14426 -0.24073,-1.39194 -1.55763,-0.59772 0.3176,-0.53352 5.71841,0.19576 3.25929,0.44011 6.02495,0.70123 6.14591,0.58027 0.12096,-0.12096 -0.2932,-0.96573 -0.92035,-1.87726 -0.62715,-0.91154 -1.0687,-1.72893 -0.9812,-1.81642 0.0875,-0.0875 4.32173,0.46465 9.40942,1.22697 5.08769,0.76233 9.31053,1.33413 9.38408,1.27069 0.0735,-0.0634 -0.29466,-0.62447 -0.81825,-1.24672 -0.52359,-0.62225 -0.88725,-1.19609 -0.80813,-1.27521 0.0791,-0.0791 3.40528,1.38937 7.39146,3.26331 3.98619,1.87393 7.32526,3.3295 7.42017,3.23459 0.0949,-0.0949 0.004,-1.02089 -0.20155,-2.05774 -0.20576,-1.03685 -0.34431,-1.91616 -0.30789,-1.95402 0.0364,-0.0379 2.1978,1.85054 4.80307,4.19643 2.60527,2.34589 4.89127,4.26526 5.07998,4.26526 0.18872,0 0.34313,-0.5625 0.34313,-1.25 0,-0.6875 0.12053,-1.248 0.26785,-1.24555 0.24824,0.004 4.91072,14.72981 4.91072,15.5097 0,0.78561 -16.96201,5.67419 -24.7759,7.14061 -7.89997,1.48257 -17.68166,2.03361 -22.30991,1.2568 l 0,0 z"
         style="fill:#fffbc1;fill-opacity:1;fill-rule:nonzero;stroke:none" />
      <path
         transform="matrix(0.7826087,0,0,1.0434783,44.378881,394.84666)"
         d="m 194.28572,390.53571 c 0,2.26831 -1.83883,4.10714 -4.10715,4.10714 -2.26831,0 -4.10714,-1.83883 -4.10714,-4.10714 0,-2.26832 1.83883,-4.10715 4.10714,-4.10715 2.26832,0 4.10715,1.83883 4.10715,4.10715 z"
         sodipodi:ry="4.1071429"
         sodipodi:rx="4.1071429"
         sodipodi:cy="390.53571"
         sodipodi:cx="190.17857"
         id="path5812"
         style="fill:#000000;fill-opacity:1;fill-rule:nonzero;stroke:none"
         sodipodi:type="arc" />
      <path
         transform="matrix(0.7826087,0,0,1.0434783,59.37888,395.20378)"
         d="m 194.28572,390.53571 c 0,2.26831 -1.83883,4.10714 -4.10715,4.10714 -2.26831,0 -4.10714,-1.83883 -4.10714,-4.10714 0,-2.26832 1.83883,-4.10715 4.10714,-4.10715 2.26832,0 4.10715,1.83883 4.10715,4.10715 z"
         sodipodi:ry="4.1071429"
         sodipodi:rx="4.1071429"
         sodipodi:cy="390.53571"
         sodipodi:cx="190.17857"
         id="path5812-8"
         style="fill:#000000;fill-opacity:1;fill-rule:nonzero;stroke:none"
         sodipodi:type="arc" />
      <path
         sodipodi:nodetypes="cssc"
         transform="translate(0,412.36218)"
         inkscape:connector-curvature="0"
         id="path5832"
         d="m 188.21429,401.07143 c 0,0 6.09477,0.82115 8.10933,0.3048 1.81838,-0.46607 4.09516,-0.85794 6.17638,-0.66195 4.44264,0.41839 8.57143,1.78572 8.57143,1.78572"
         style="fill:none;stroke:#000000;stroke-width:1px;stroke-linecap:butt;stroke-linejoin:miter;stroke-opacity:1" />
    </g>
    <path
       style="fill:#005c04;fill-opacity:1;stroke:#000000;stroke-width:1px;stroke-linecap:butt;stroke-linejoin:miter;stroke-opacity:1"
       d="m 180,865.79075 30,2.85715 34.28571,-5.71429 2.85715,60 -70.71428,0 z"
       id="path5842"
       inkscape:connector-curvature="0"
       sodipodi:nodetypes="cccccc" />
    <path
       style="fill:#005c04;fill-opacity:1;stroke:#000000;stroke-width:1px;stroke-linecap:butt;stroke-linejoin:miter;stroke-opacity:1"
       d="m 245.35715,863.29075 -31.42857,28.57142 -46.42858,7.85715 4.28572,15.71428 45.71429,-9.28571 27.14286,-23.57143 z"
       id="path5844-2"
       inkscape:connector-curvature="0" />
    <path
       style="fill:none;stroke:#000000;stroke-width:2;stroke-linecap:butt;stroke-linejoin:miter;stroke-miterlimit:4;stroke-opacity:1;stroke-dasharray:none"
       d="m 250,748.64789 c 0,0 4.13715,32.18679 16.42858,39.28572 17.87582,10.32419 61.42857,-7.85715 61.42857,-7.85715"
       id="path5864"
       inkscape:connector-curvature="0"
       sodipodi:nodetypes="csc" />
    <path
       style="fill:#b10000;fill-opacity:1;stroke:#000000;stroke-width:1px;stroke-linecap:butt;stroke-linejoin:miter;stroke-opacity:1"
       d="m 317.69298,802.22759 -40.40611,31.81981 -41.92133,21.71828 3.03046,11.11168 43.43656,-23.23351 37.37564,-28.28427 z"
       id="path5908"
       inkscape:connector-curvature="0" />
    <path
       style="fill:#959300;fill-opacity:1;stroke:#000000;stroke-width:1px;stroke-linecap:butt;stroke-linejoin:miter;stroke-opacity:1"
       d="m 245.71429,752.21932 c 0,0 8.13527,-6.14521 12.85714,-7.85714 6.10959,-2.21505 12.86822,-3.8815 19.28571,-2.85714 5.25742,0.83919 14.28572,7.14285 14.28572,7.14285 l -3.57143,61.42858 2.85714,-4.28572 1.42857,4.28572 2.85715,-61.42858 12.14285,-5 6.42857,17.85715 -4.28571,65.71428 2.85714,4.28572 1.42857,-6.42857 1.42858,5 1.42857,-4.28572 2.14285,6.42857 0.71429,-5 1.42857,3.57143 2.85714,-4.28571 2.14286,6.42857 2.14286,-7.14286 -1.42857,-67.14286 c 0,0 -3.25582,-18.06046 -9.28572,-24.28571 -5.56854,-5.74894 -14.2964,-7.70708 -22.14285,-9.28571 -10.50381,-2.11326 -21.79532,-2.77925 -32.14286,0 -5.04834,1.35594 -10.48196,3.64057 -13.57143,7.85714 -3.89216,5.3121 -4.28571,19.28571 -4.28571,19.28571 z"
       id="path5866"
       inkscape:connector-curvature="0"
       sodipodi:nodetypes="csscccccccccccccccccccssssc" />
    <path
       style="fill:#fffdc2;fill-opacity:1;fill-rule:nonzero;stroke:none"
       d="m 274.1978,789.13512 c -8.30515,-1.82364 -12.32637,-5.76449 -16.42051,-16.09236 -1.98021,-4.99529 -6.09202,-20.1789 -6.0654,-22.39763 0.008,-0.65351 1.67613,-2.14452 3.7638,-3.36382 3.08499,-1.80177 5.39343,-2.4217 13.02163,-3.49694 l 9.27191,-1.30692 6.60714,3.32554 6.60715,3.32554 -0.02,3.38569 c -0.0347,5.87986 -1.99736,35.99829 -2.37005,36.37098 -0.68368,0.68368 -11.56029,0.87251 -14.39566,0.24992 z"
       id="path5868"
       inkscape:connector-curvature="0" />
    <path
       style="fill:#fffca3;fill-opacity:1;fill-rule:nonzero;stroke:none"
       d=""
       id="path5870"
       inkscape:connector-curvature="0"
       transform="translate(0,412.36218)" />
    <path
       style="fill:#fffdae;fill-opacity:1;fill-rule:nonzero;stroke:none"
       d="m 294.81507,784.32491 c 0.22432,-2.27661 0.58685,-9.28215 0.80561,-15.56786 0.21876,-6.28572 0.5776,-13.2375 0.79743,-15.4484 0.4361,-4.38598 0.23257,-4.19452 7.53641,-7.08926 l 3.32814,-1.31905 3.00238,8.18553 3.00239,8.18553 -0.5172,10.67935 c -0.29535,6.09842 -0.86608,11.12389 -1.33053,11.7157 -0.44733,0.56998 -3.70618,1.72061 -7.2419,2.55693 -11.05905,2.61588 -9.85161,2.86019 -9.38273,-1.89847 z"
       id="path5872"
       inkscape:connector-curvature="0" />
    <path
       style="fill:#000000;fill-opacity:1;stroke:#000000;stroke-width:1px;stroke-linecap:butt;stroke-linejoin:miter;stroke-opacity:1"
       d="m 256.42857,758.64789 9.64286,-1.42857 c 0,0 1.0745,5.57438 0.35714,7.85715 -0.65809,2.09416 -2.09827,4.81645 -4.28571,5 -1.85307,0.1555 -3.34892,-1.96505 -4.28572,-3.57143 -1.34103,-2.29953 -1.42857,-7.85715 -1.42857,-7.85715 z"
       id="path5874"
       inkscape:connector-curvature="0"
       sodipodi:nodetypes="ccsssc" />
    <path
       style="fill:#000000;fill-opacity:1;stroke:#000000;stroke-width:1px;stroke-linecap:butt;stroke-linejoin:miter;stroke-opacity:1"
       d="m 272.55516,756.32241 9.64286,-1.42857 c 0,0 1.0745,5.57438 0.35714,7.85715 -0.65809,2.09416 -2.09827,4.81645 -4.28571,5 -1.85307,0.1555 -3.34892,-1.96505 -4.28572,-3.57143 -1.34103,-2.29953 -1.42857,-7.85715 -1.42857,-7.85715 z"
       id="path5874-7"
       inkscape:connector-curvature="0"
       sodipodi:nodetypes="ccsssc" />
    <path
       style="fill:none;stroke:#000000;stroke-width:1px;stroke-linecap:butt;stroke-linejoin:miter;stroke-opacity:1"
       d="M 265.17857,781.50504 283.75,778.46932"
       id="path5894"
       inkscape:connector-curvature="0" />
    <flowRoot
       xml:space="preserve"
       id="flowRoot5910"
       style="font-size:22px;font-style:normal;font-variant:normal;font-weight:normal;font-stretch:normal;line-height:125%;letter-spacing:0px;word-spacing:0px;fill:#000000;fill-opacity:1;stroke:none;font-family:Raleway;-inkscape-font-specification:Raleway"
       transform="translate(47.47717,468.80889)"><flowRegion
         id="flowRegion5912"><rect
           id="rect5914"
           width="412.14224"
           height="116.16754"
           x="39.39595"
           y="82.395798" /></flowRegion><flowPara
         id="flowPara5916">Also, that text needs to be vertically centered. It looks awful.</flowPara></flowRoot>    <flowRoot
       xml:space="preserve"
       id="flowRoot5918"
       style="font-size:22px;font-style:normal;font-variant:normal;font-weight:normal;font-stretch:normal;line-height:125%;letter-spacing:0px;word-spacing:0px;fill:#000000;fill-opacity:1;stroke:none;font-family:Raleway;-inkscape-font-specification:Raleway"
       transform="translate(-19.192898,433.45355)"><flowRegion
         id="flowRegion5920"><rect
           id="rect5922"
           width="311.12698"
           height="50.507626"
           x="49.497475"
           y="228.86792" /></flowRegion><flowPara
         id="flowPara5924">Uhhh... Give me a few hours...</flowPara></flowRoot>    <path
       style="fill:none;stroke:#000000;stroke-width:1px;stroke-linecap:butt;stroke-linejoin:miter;stroke-opacity:1"
       d="m 77.781746,548.17423 383.857964,-1.01015 0,68.69037 -32.32488,0 c 0,0 4.85221,59.40026 -11.11168,81.82236 -18.60308,26.12898 -85.86296,43.43656 -85.86296,43.43656 0,0 56.54944,-23.93951 71.72083,-48.48733 13.5697,-21.95624 10.10152,-76.77159 10.10152,-76.77159 L 77.781746,616.8646 z"
       id="path5926"
       inkscape:connector-curvature="0"
       sodipodi:nodetypes="ccccscsccc" />
    <path
       style="fill:none;stroke:#000000;stroke-width:1px;stroke-linecap:butt;stroke-linejoin:miter;stroke-opacity:1"
       d="m 25.253814,659.29101 312.137136,0 0,34.34519 -234.35539,3.03045 c 0,0 3.02732,41.31277 13.13198,58.58885 11.4356,19.55161 50.50763,45.45687 50.50763,45.45687 0,0 -49.35918,-19.31994 -64.64976,-39.39595 C 88.657845,743.76527 83.842661,697.67681 83.842661,697.67681 l -58.588847,0 z"
       id="path5928"
       inkscape:connector-curvature="0"
       sodipodi:nodetypes="ccccscsccc" />
    <path
       style="fill:#454242;fill-opacity:1;stroke:#000000;stroke-width:1px;stroke-linecap:butt;stroke-linejoin:miter;stroke-opacity:1"
       d="m 259.28571,468.92857 -0.71428,41.42857 26.42857,0 2.5,-8.92857 2.14285,8.92857 30.35715,0.71429 -1.07143,-44.28572 c 0,0 -19.98599,2.85287 -30,3.21429 -10.03872,0.3623 -29.64286,-1.07143 -29.64286,-1.07143 z"
       id="path3137"
       inkscape:connector-curvature="0"
       transform="translate(0,412.36218)"
       sodipodi:nodetypes="cccccccsc" />
    <path
       style="fill:#695202;fill-opacity:1;stroke:#000000;stroke-width:1px;stroke-linecap:butt;stroke-linejoin:miter;stroke-opacity:1"
       d="m 186.42857,855.93361 -2.7092,3.31889 3.97189,0.60968 -0.65301,3.40555 3.40555,-2.12491 2.73459,2.29079 2.81382,-4.64286 z"
       id="path3985"
       inkscape:connector-curvature="0"
       sodipodi:nodetypes="cccccccc" />
  </g>
</svg>
