<?xml version="1.0" encoding="UTF-8" standalone="no"?>
<!-- Created with Inkscape (http://www.inkscape.org/) -->

<svg
   xmlns:dc="http://purl.org/dc/elements/1.1/"
   xmlns:cc="http://creativecommons.org/ns#"
   xmlns:rdf="http://www.w3.org/1999/02/22-rdf-syntax-ns#"
   xmlns:svg="http://www.w3.org/2000/svg"
   xmlns="http://www.w3.org/2000/svg"
   xmlns:sodipodi="http://sodipodi.sourceforge.net/DTD/sodipodi-0.dtd"
   xmlns:inkscape="http://www.inkscape.org/namespaces/inkscape"
   width="200"
   height="200"
   id="svg2"
   version="1.1"
   inkscape:version="0.48.5 r10040"
   sodipodi:docname="sage_blind.png">
  <defs
     id="defs4" />
  <sodipodi:namedview
     id="base"
     pagecolor="#ffffff"
     bordercolor="#666666"
     borderopacity="1.0"
     inkscape:pageopacity="0.0"
     inkscape:pageshadow="2"
     inkscape:zoom="1.4"
     inkscape:cx="41.426458"
     inkscape:cy="116.5337"
     inkscape:document-units="px"
     inkscape:current-layer="layer1"
     showgrid="false"
     inkscape:window-width="1536"
     inkscape:window-height="801"
     inkscape:window-x="-8"
     inkscape:window-y="-8"
     inkscape:window-maximized="1" />
  <metadata
     id="metadata7">
    <rdf:RDF>
      <cc:Work
         rdf:about="">
        <dc:format>image/svg+xml</dc:format>
        <dc:type
           rdf:resource="http://purl.org/dc/dcmitype/StillImage" />
        <dc:title></dc:title>
      </cc:Work>
    </rdf:RDF>
  </metadata>
  <g
     inkscape:label="Layer 1"
     inkscape:groupmode="layer"
     id="layer1"
     transform="translate(0,-2957.0866)">
    <path
       style="fill:none;stroke:#000000;stroke-width:2;stroke-linecap:butt;stroke-linejoin:miter;stroke-miterlimit:4;stroke-opacity:1;stroke-dasharray:none"
       d="m 137.38075,76.256313 c 0,0 -6.09887,31.935477 -18.68783,38.890877 -18.24266,10.07906 -59.598996,-6.56599 -59.598996,-6.56599"
       id="path2985"
       inkscape:connector-curvature="0"
       transform="translate(0,2957.0866)"
       sodipodi:nodetypes="csc" />
    <path
       style="fill:#faf5bf;fill-opacity:1;fill-rule:nonzero;stroke:none"
       d="m 95.368604,116.63907 c -7.837309,-0.90054 -17.818294,-3.23114 -28.141335,-6.57113 -3.393785,-1.09805 -6.29044,-2.19049 -6.437011,-2.42764 -0.146572,-0.23716 0.184447,-3.35275 0.735598,-6.92354 1.224674,-7.93441 1.22826,-7.400811 -0.04516,-6.719299 -0.960552,0.514071 -1.024291,0.460155 -0.692363,-0.585657 0.201071,-0.633519 1.023244,-2.617654 1.827051,-4.409188 0.803806,-1.791533 1.371299,-3.347502 1.261094,-3.457706 -0.110204,-0.110205 -1.024512,0.285883 -2.031794,0.880194 -1.007283,0.594311 -1.831423,0.908813 -1.831423,0.698894 0,-0.209918 1.704633,-3.06703 3.788072,-6.349136 2.08344,-3.282106 3.788072,-6.225782 3.788072,-6.541503 0,-0.372664 -0.487248,-0.4537 -1.388959,-0.231003 -1.797773,0.443998 -1.32758,0.02473 3.661803,-3.265189 2.222335,-1.465373 4.495178,-3.062336 5.050762,-3.548806 0.767615,-0.672124 2.34411,-0.965538 6.565992,-1.222049 6.744673,-0.409788 8.918422,-0.751463 8.552069,-1.344235 -0.15286,-0.247332 -0.0057,-0.449695 0.327116,-0.449695 0.692549,0 12.228888,1.89317 14.036528,2.303463 1.08459,0.246177 1.16547,0.144425 0.85823,-1.079719 -0.29112,-1.159892 -0.21025,-1.300563 0.57033,-0.992172 1.65775,0.654938 13.49443,4.819191 13.69831,4.819191 0.1101,0 0.0528,-0.587255 -0.12735,-1.305011 -0.38148,-1.51992 -0.73839,-1.680061 5.40484,2.425075 5.90331,3.944815 6.12385,4.016718 5.70464,1.859952 l -0.33379,-1.717326 2.85426,2.983471 c 3.33995,3.49114 3.32359,3.077336 0.50387,12.743313 -3.38673,11.609646 -7.96899,20.916271 -12.36121,25.105741 -5.30961,5.06451 -13.43807,6.74095 -25.798246,5.32071 z"
       id="path3757"
       inkscape:connector-curvature="0"
       transform="translate(0,2957.0866)" />
    <path
       style="fill:none;stroke:#000000;stroke-width:3;stroke-linecap:butt;stroke-linejoin:miter;stroke-opacity:1;stroke-miterlimit:4;stroke-dasharray:none"
       d="M 56.568543,80.296923 81.31728,84.84261 134.85536,82.822305"
       id="path3761"
       inkscape:connector-curvature="0"
       transform="translate(0,2957.0866)" />
    <path
       style="fill:#4a3902;fill-opacity:1;stroke:#000000;stroke-width:1px;stroke-linecap:butt;stroke-linejoin:miter;stroke-opacity:1"
       d="m 141.42136,81.307076 -12.62691,-13.637059 1.01015,5.050763 -12.12183,-8.081221 1.01015,3.535534 -15.65736,-5.555839 1.51523,3.030457 -18.182747,-3.030457 2.525381,2.020305 -19.192898,1.515229 4.04061,1.010152 -12.121831,8.081221 5.050763,-0.505077 -9.596449,15.152288 5.555839,-3.030457 -4.545687,10.606602 3.535534,-2.525382 -3.030457,20.203055 -4.545687,-12.12183 -2.525381,3.03045 1.010152,-15.152285 -7.323606,3.030457 8.838835,-17.172593 -5.050763,1.010153 4.620196,-15.355629 5.332219,3.983697 4.222605,-16.698072 7.038183,6.351724 10.354064,-10.354064 -0.505075,6.313454 10.354062,-7.576144 4.545687,6.313454 15.152291,-6.313454 -1.76777,6.060915 15.90991,-2.525382 -1.2627,7.323607 11.36421,1.262691 -3.53553,6.060914 5.80837,0.505078 z"
       id="path3755"
       inkscape:connector-curvature="0"
       transform="translate(0,2957.0866)"
       sodipodi:nodetypes="cccccccccccccccccccccccccccccccccccccccc" />
    <path
       style="fill:#000000;fill-opacity:1;stroke:#000000;stroke-width:1px;stroke-linecap:butt;stroke-linejoin:miter;stroke-opacity:1"
       d="m 85.862966,3041.9292 c 0,0 -0.153423,12.8482 11.616755,12.6269 9.632359,-0.1811 8.586289,-12.6269 8.586289,-12.6269"
       id="path3763"
       inkscape:connector-curvature="0"
       sodipodi:nodetypes="csc" />
    <path
       style="fill:#000000;fill-opacity:1;stroke:#000000;stroke-width:1px;stroke-linecap:butt;stroke-linejoin:miter;stroke-opacity:1"
       d="m 110.09002,3040.1601 c 0,0 -0.15342,12.8482 11.61676,12.6269 9.63237,-0.1811 8.5863,-12.6269 8.5863,-12.6269"
       id="path3763-1"
       inkscape:connector-curvature="0"
       sodipodi:nodetypes="csc" />
    <path
       style="fill:none;stroke:#000000;stroke-width:1px;stroke-linecap:butt;stroke-linejoin:miter;stroke-opacity:1"
       d="m 113.64216,108.07612 c 0,0 -10.08392,1.79263 -15.152287,1.51523 -5.67097,-0.31038 -16.667517,-3.53554 -16.667517,-3.53554"
       id="path3783"
       inkscape:connector-curvature="0"
       transform="translate(0,2957.0866)"
       sodipodi:nodetypes="csc" />
    <path
       style="fill:#005307;stroke:#000000;stroke-width:1px;stroke-linecap:butt;stroke-linejoin:miter;stroke-opacity:1;fill-opacity:1"
       d="m 64.649763,123.22841 c 0,0 25.787358,6.72045 38.890877,6.06091 11.99035,-0.60351 34.85026,-9.09137 34.85026,-9.09137 l 2.52538,87.88327 -70.710678,2.02031 z"
       id="path3785"
       inkscape:connector-curvature="0"
       transform="translate(0,2957.0866)"
       sodipodi:nodetypes="cscccc" />
    <path
       style="fill:#005307;fill-opacity:1;stroke:#000000;stroke-width:1px;stroke-linecap:butt;stroke-linejoin:miter;stroke-opacity:1"
       d="m 138.3909,3077.2846 0,19.6979 31.31472,-27.7792 0,-40.4061 c 0,0 -4.79044,3.6155 -7.57614,3.5356 -2.48478,-0.071 -6.56599,-3.5356 -6.56599,-3.5356 l 1.51523,37.3757 z"
       id="path3787"
       inkscape:connector-curvature="0"
       sodipodi:nodetypes="ccccsccc" />
    <g
       id="g3801"
       transform="matrix(0.73066518,0,0,0.70825188,43.201102,883.3497)">
      <path
         transform="translate(0,2957.0866)"
         inkscape:connector-curvature="0"
         id="path3789"
         d="m 152.02796,65.649711 -0.50508,-11.616754 4.04061,-5.050763 2.02031,-6.565991 -2.52538,-5.050763 2.52538,-2.525381 5.05076,5.555839 -1.51523,8.08122 3.53553,4.04061 8.5863,-1.010152 3.53554,5.555839 -1.01016,9.596449 -12.6269,3.535534 z"
         style="fill:#fffed2;fill-opacity:1;stroke:#000000;stroke-width:1px;stroke-linecap:butt;stroke-linejoin:miter;stroke-opacity:1" />
      <path
         transform="translate(0,2957.0866)"
         inkscape:connector-curvature="0"
         id="path3795"
         d="m 175.76654,57.063415 -11.61675,2.525381 -2.52538,-3.030458 3.03045,-3.535533"
         style="fill:none;stroke:#000000;stroke-width:1px;stroke-linecap:butt;stroke-linejoin:miter;stroke-opacity:1" />
      <path
         transform="translate(0,2957.0866)"
         inkscape:connector-curvature="0"
         id="path3797"
         d="m 176.27162,62.619254 -11.61676,1.515229 -3.03045,-1.515229 2.52538,-3.030458"
         style="fill:none;stroke:#000000;stroke-width:1px;stroke-linecap:butt;stroke-linejoin:miter;stroke-opacity:1" />
      <path
         transform="translate(0,2957.0866)"
         inkscape:connector-curvature="0"
         id="path3799"
         d="m 165.15994,68.680169 -3.03046,-2.020305 3.03046,-1.515229"
         style="fill:none;stroke:#000000;stroke-width:1px;stroke-linecap:butt;stroke-linejoin:miter;stroke-opacity:1" />
    </g>
    <path
       style="fill:#095418;fill-opacity:1;stroke:#000000;stroke-width:1px;stroke-linecap:butt;stroke-linejoin:miter;stroke-opacity:1"
       d="m 41.416254,171.71573 21.213204,54.54824 9.596449,-9.59645 L 53.033009,173.23096 65.659916,140.401 64.34098,123.54742 z"
       id="path3807"
       inkscape:connector-curvature="0"
       transform="translate(0,2957.0866)"
       sodipodi:nodetypes="ccccccc" />
    <path
       style="fill:#3d3700;stroke:#000000;stroke-width:1px;stroke-linecap:butt;stroke-linejoin:miter;stroke-opacity:1;fill-opacity:1"
       d="m 90.714286,117.85714 -1.428572,6.78572 5,-2.14286 4.642858,3.21429 3.571428,-2.85715 6.78571,2.85715 L 110,118.57143 z"
       id="path3809"
       inkscape:connector-curvature="0"
       transform="translate(0,2957.0866)" />
  </g>
</svg>
