<?xml version="1.0" encoding="UTF-8" standalone="no"?>
<!-- Created with Inkscape (http://www.inkscape.org/) -->

<svg
   xmlns:dc="http://purl.org/dc/elements/1.1/"
   xmlns:cc="http://creativecommons.org/ns#"
   xmlns:rdf="http://www.w3.org/1999/02/22-rdf-syntax-ns#"
   xmlns:svg="http://www.w3.org/2000/svg"
   xmlns="http://www.w3.org/2000/svg"
   xmlns:sodipodi="http://sodipodi.sourceforge.net/DTD/sodipodi-0.dtd"
   xmlns:inkscape="http://www.inkscape.org/namespaces/inkscape"
   width="228"
   height="216"
   id="svg2"
   version="1.1"
   inkscape:version="0.48.5 r10040"
   sodipodi:docname="sage_on_mobile.svg">
  <defs
     id="defs4" />
  <sodipodi:namedview
     id="base"
     pagecolor="#ffffff"
     bordercolor="#666666"
     borderopacity="1.0"
     inkscape:pageopacity="0.0"
     inkscape:pageshadow="2"
     inkscape:zoom="2.8284271"
     inkscape:cx="167.30365"
     inkscape:cy="100.62962"
     inkscape:document-units="px"
     inkscape:current-layer="layer4"
     showgrid="false"
     inkscape:window-width="1920"
     inkscape:window-height="955"
     inkscape:window-x="-9"
     inkscape:window-y="-9"
     inkscape:window-maximized="1" />
  <metadata
     id="metadata7">
    <rdf:RDF>
      <cc:Work
         rdf:about="">
        <dc:format>image/svg+xml</dc:format>
        <dc:type
           rdf:resource="http://purl.org/dc/dcmitype/StillImage" />
        <dc:title></dc:title>
      </cc:Work>
    </rdf:RDF>
  </metadata>
  <g
     inkscape:label="Face"
     inkscape:groupmode="layer"
     id="layer1"
     style="display:inline"
     transform="translate(0,-836.36218)">
    <path
       style="fill:none;stroke:#000000;stroke-width:5;stroke-linecap:butt;stroke-linejoin:miter;stroke-miterlimit:4;stroke-opacity:1;stroke-dasharray:none"
       d="m 24.071066,905.02026 c 0,0 24.48886,16.26722 38.57143,18.57143 18.94394,3.09963 42.553304,5.33213 57.142864,-7.14286 12.42849,-10.62714 13.57142,-47.14285 13.57142,-47.14285"
       id="path3766"
       inkscape:connector-curvature="0"
       sodipodi:nodetypes="cssc" />
    <path
       style="fill:#fafac8;fill-opacity:1;fill-rule:nonzero;stroke:#6e6f4b;stroke-width:0.08838835;stroke-linejoin:miter;stroke-miterlimit:4;stroke-opacity:1;stroke-dasharray:none"
       d="M 75.443425,86.422181 C 71.779816,86.010512 68.492925,85.571342 65.234571,85.058148 62.342559,84.602654 62.172067,84.570636 60.77096,84.2199 53.372059,82.367751 41.801367,76.741124 28.968812,68.755066 l -0.822033,-0.511574 0.180494,-0.192127 c 0.09927,-0.105669 0.419182,-0.388783 0.710913,-0.629141 l 0.53042,-0.437015 6.34e-4,-4.788946 6.33e-4,-4.788945 -1.452186,-2.418007 -1.452186,-2.418007 1.421364,-5.697746 c 0.781751,-3.13376 1.425291,-5.704017 1.430089,-5.711681 0.0048,-0.0077 1.838363,-0.239475 4.074589,-0.515135 2.236225,-0.27566 4.11618,-0.516963 4.177678,-0.536228 0.07367,-0.02308 -0.552079,-1.362546 -1.834255,-3.926379 l -1.946069,-3.891352 0.375847,1.77e-4 c 0.206716,7.8e-5 4.271813,0.217485 9.033549,0.483127 4.761734,0.265641 8.668304,0.472381 8.681264,0.45942 0.01296,-0.01296 -1.30771,-2.020231 -2.934823,-4.460603 -1.627113,-2.440371 -2.948323,-4.436497 -2.936023,-4.435836 0.0123,6.63e-4 7.598494,0.893242 16.858206,1.983512 9.259712,1.09027 16.846812,1.971337 16.860222,1.957928 0.01341,-0.01341 -1.06562,-2.228501 -2.397844,-4.922425 -1.332224,-2.693957 -2.396206,-4.90804 -2.364405,-4.920216 0.0318,-0.01218 7.607978,1.310334 16.835951,2.938912 9.227969,1.628579 16.834969,2.961052 16.904449,2.961052 0.083,0 -0.29972,-0.851663 -1.11654,-2.484489 -0.68357,-1.36647 -1.2275,-2.499848 -1.20873,-2.51862 0.0188,-0.01877 5.20751,3.276918 11.53053,7.323752 l 11.49639,7.357882 0.48647,1.458407 c 0.39937,1.197279 0.47969,1.537539 0.44865,1.90035 -0.0208,0.243068 -0.0992,1.157887 -0.17415,2.032932 -0.82095,9.579794 -2.65382,19.262315 -4.90708,25.9228 -1.44032,4.25747 -3.3062,8.065921 -5.08315,10.37519 -2.55753,3.32371 -7.29155,6.440382 -12.7609,8.401222 -1.25633,0.450416 -2.99947,0.988564 -3.04726,0.940767 -0.0176,-0.01759 -0.25921,-0.887048 -0.53694,-1.932134 -0.27773,-1.045086 -0.53503,-1.933483 -0.57179,-1.974214 -0.063,-0.0698 -25.029155,2.872818 -25.578573,3.014797 -0.243223,0.06285 -0.274553,0.128189 -0.58237,1.214494 -0.379504,1.339289 -0.199554,1.237391 -1.856422,1.051214 l 0,0 z m 17.766058,-8.877056 c 4.17328,-0.198512 8.352927,-0.690606 10.528497,-1.239581 1.93517,-0.488314 4.7354,-1.669206 7.90751,-3.3347 2.29692,-1.205981 5.51724,-3.057359 5.51724,-3.171892 0,-0.05622 -1.4084,-2.424586 -1.50912,-2.537731 -0.038,-0.04265 -0.81769,0.358974 -1.73273,0.892493 -5.22146,3.044397 -9.03992,4.774467 -11.74516,5.321492 -1.80966,0.36593 -4.305037,0.670703 -7.463635,0.911572 -1.959967,0.149463 -11.873891,0.147506 -14.71666,-0.0029 -5.238302,-0.27716 -9.718449,-0.620322 -14.71666,-1.127238 -4.470964,-0.453443 -11.835826,-1.366282 -14.970854,-1.855566 -0.480102,-0.07493 -0.882421,-0.124669 -0.894042,-0.110533 -0.0306,0.03723 -0.483823,3.020112 -0.461498,3.037365 0.04755,0.03675 5.561612,0.786442 8.081113,1.09871 9.774262,1.211424 17.761996,1.875004 25.878757,2.149874 2.002686,0.06782 8.636972,0.04762 10.297242,-0.03136 l 0,2e-6 z m 6.995027,-21.365184 c 1.73292,-0.853205 3.24018,-3.483664 3.76002,-6.561991 0.21414,-1.268044 0.18976,-3.364275 -0.0507,-4.362385 -0.37971,-1.575908 -1.11703,-2.716872 -2.08469,-3.225975 -0.38422,-0.202141 -0.55033,-0.23344 -1.23919,-0.233491 -0.694294,-5.1e-5 -0.860644,0.03182 -1.307603,0.250506 -2.264853,1.108151 -3.948002,4.833233 -3.959519,8.763057 -0.0084,2.852674 0.920957,4.893561 2.514404,5.521922 0.704188,0.27769 1.613629,0.219434 2.367318,-0.151643 l 0,0 z m -31.802716,-0.5915 c 0.283565,-0.135344 0.775864,-0.489571 1.093998,-0.78717 3.176188,-2.971167 4.060807,-10.176484 1.564718,-12.744772 -1.516856,-1.560729 -3.874425,-0.973561 -5.44677,1.356553 -1.244088,1.843659 -1.908933,4.052329 -1.987186,6.601594 -0.04691,1.528105 0.08997,2.51929 0.495788,3.590264 0.377754,0.996907 1.154882,1.827785 2.019323,2.15899 0.542227,0.207752 1.634997,0.122917 2.260129,-0.175459 z"
       id="path3847"
       inkscape:connector-curvature="0"
       transform="translate(0,836.36218)" />
  </g>
  <g
     inkscape:groupmode="layer"
     id="layer5"
     inkscape:label="Phone" />
  <g
     inkscape:groupmode="layer"
     id="layer2"
     inkscape:label="Hair"
     transform="translate(0,-836.36218)">
    <path
       style="fill:none;stroke:#000000;stroke-width:3;stroke-linecap:butt;stroke-linejoin:miter;stroke-miterlimit:4;stroke-opacity:1;stroke-dasharray:none"
       d="m 49.213926,909.16312 c 0,0 36.06051,5.71434 53.571434,2.14286 4.90469,-1.00035 13.57143,-6.42857 13.57143,-6.42857"
       id="path3760"
       inkscape:connector-curvature="0"
       sodipodi:nodetypes="csc" />
    <path
       style="fill:#3c2301;fill-opacity:1;stroke:#000000;stroke-width:1px;stroke-linecap:butt;stroke-linejoin:miter;stroke-opacity:1"
       d="m 29.071066,903.02026 -7,6 -10,-24 -9,-1 8,-10 -6,-2 16,-16 -6,-2 31,-14 -5,9 31,-12 -9,11 38.000004,-9 -8,9 22,-4 -4,9 22,-5 -6,6 17,15 -8,-4 10,22 -13,-8 -3,-9 -25,-16 3,6 -34.000004,-6 5,10 -34,-4 6,9 -18,-1 4,8 -8,1 -3,12 3,5 z"
       id="path3768"
       inkscape:connector-curvature="0" />
    <path
       style="fill:#3c2301;fill-opacity:1;stroke:#000000;stroke-width:1px;stroke-linecap:butt;stroke-linejoin:miter;stroke-opacity:1"
       d="m 78.071066,921.02026 -4,14 7,-7 3,8 6,-8 6.000004,7 4,-8 7,6 -4,-15 z"
       id="path3770"
       inkscape:connector-curvature="0" />
    <path
       sodipodi:type="arc"
       style="fill:#000000;fill-opacity:1;fill-rule:nonzero;stroke:#000000;stroke-width:3;stroke-linejoin:miter;stroke-miterlimit:4;stroke-opacity:1;stroke-dasharray:none"
       id="path3772"
       sodipodi:cx="96.5"
       sodipodi:cy="186.36218"
       sodipodi:rx="4.5"
       sodipodi:ry="10"
       d="m 101,186.36218 a 4.5,10 0 1 1 -9,0 4.5,10 0 1 1 9,0 z"
       transform="matrix(0.69899469,0.14915501,-0.13393925,0.62768812,25.554167,753.53335)" />
    <path
       transform="matrix(0.70239028,0.13224481,-0.11875411,0.63073732,54.068131,755.18792)"
       sodipodi:type="arc"
       style="fill:#000000;fill-opacity:1;fill-rule:nonzero;stroke:#000000;stroke-width:3;stroke-linejoin:miter;stroke-miterlimit:4;stroke-opacity:1;stroke-dasharray:none"
       id="path3772-1"
       sodipodi:cx="96.5"
       sodipodi:cy="186.36218"
       sodipodi:rx="4.5"
       sodipodi:ry="10"
       d="m 101,186.36218 a 4.5,10 0 1 1 -9,0 4.5,10 0 1 1 9,0 z" />
  </g>
  <g
     inkscape:groupmode="layer"
     id="layer3"
     inkscape:label="Shirt"
     style="display:inline"
     transform="translate(0,-836.36218)">
    <path
       style="fill:#a7a7a7;fill-opacity:1;stroke:#434343;stroke-width:2;stroke-linecap:butt;stroke-linejoin:miter;stroke-miterlimit:4;stroke-opacity:1;stroke-dasharray:none"
       d="m 53.923886,935.07447 c 0,0 14.73423,7.67172 31.8198,7.07107 16.463724,-0.57879 31.819814,-9.19239 31.819814,-9.19239 11.98247,34.56343 12.80259,45.75877 17.5844,86.27055 0.85339,6.7008 4.3359,19.7955 4.3359,19.7955 0,0 -6.95787,6.3367 -19.09188,9.1924 -19.02348,4.477 -36.180504,3.5922 -45.266384,3.888 -14.13745,0.4602 -27.56561,0.3546 -27.56561,0.3546 0,0 2.94427,-14.069 3.53554,-21.2132 5.88073,-57.45444 1.80888,-48.24793 2.82842,-96.16653 z"
       id="path3792"
       inkscape:connector-curvature="0"
       sodipodi:nodetypes="cscccssccc" />
    <path
       style="fill:#a7a7a7;fill-opacity:1;stroke:#434343;stroke-width:2;stroke-linecap:butt;stroke-linejoin:miter;stroke-miterlimit:4;stroke-opacity:1;stroke-dasharray:none"
       d="m 117.91704,932.9066 c 0.67993,-9.39088 58.43377,26.60419 58.43377,26.60419 l 14.23402,45.28441 c 0,0 -7.93713,-2.3876 -11.17894,-2.2647 -4.76919,0.1806 -10.56497,1.6997 -10.56497,1.6997 L 160.90716,972.27792 124.281,952.70559 c 0,0 -6.7692,-14.20202 -6.36396,-19.79899 z"
       id="path3824"
       inkscape:connector-curvature="0"
       sodipodi:nodetypes="sccscccs" />
    <path
       style="fill:#a7a7a7;fill-opacity:1;stroke:#434343;stroke-width:2;stroke-linecap:butt;stroke-linejoin:miter;stroke-miterlimit:4;stroke-opacity:1;stroke-dasharray:none"
       d="M 53.696066,934.39526 C 32.951366,933.86407 0.9711936,971.85237 0.9711936,971.85237 L 29.074746,1011.163 c 0,0 2.84663,-5.368 5.12132,-7.2677 1.97453,-1.6491 7,-3.25 7,-3.25 l -18.5,-27.50004 30.5,-22.5 c 0,0 1.54413,-16.22326 0.5,-16.25 z"
       id="path3826"
       inkscape:connector-curvature="0"
       sodipodi:nodetypes="sccscccs" />
  </g>
  <g
     inkscape:groupmode="layer"
     id="layer4"
     inkscape:label="Hands"
     transform="translate(0,-836.36218)">
    <path
       style="fill:#fafac8;fill-opacity:1;stroke:#6e6e4b;stroke-width:1.28924787px;stroke-linecap:butt;stroke-linejoin:miter;stroke-opacity:1"
       d="m 192.47715,1008.9275 -11.30252,-3.1618 -9.35991,3.3089 -1.94262,2.7942 3.00224,1.9853 6.97577,-3.5295 9.2716,0.7353 z"
       id="path3916"
       inkscape:connector-curvature="0" />
    <path
       style="fill:#fafac8;fill-opacity:1;stroke:#6e6f4b;stroke-width:1px;stroke-linecap:butt;stroke-linejoin:miter;stroke-opacity:1"
       d="m 38.013976,1007.5581 7.07107,-5.3033 7.07107,-0.7071 0.35355,5.3033 -3.18198,2.1214 8.13173,-1.7678 2.47487,2.4749 -2.47487,3.5355 -7.77817,0.7071 -1.41422,1.4142 9.19239,0.3536 2.47487,3.5355 -1.41421,3.5355 -9.19239,-0.3535 -1.41421,1.7678 6.36396,3.1819 0.35355,4.2427 -4.59619,2.1213 -10.25305,-4.5962 -7.07107,-9.1924 z"
       id="path3845"
       inkscape:connector-curvature="0" />
    <g
       transform="matrix(1.4624747,0,0,1.8045205,-68.383319,697.15927)"
       id="g3924">
      <path
         sodipodi:nodetypes="sssss"
         inkscape:connector-curvature="0"
         id="path3852-2"
         d="m 176.60705,173.80023 c 0.84385,-0.26298 0.74831,2.18124 0,2.65165 -0.59828,0.37609 -6.78337,4.66415 -7.77818,4.86136 -0.78031,0.15469 -0.60558,-1.87065 0,-2.38649 1.03048,-0.87777 6.54686,-4.74279 7.77818,-5.12652 z"
         style="fill:#9b9b9b;fill-opacity:1;stroke:#000000;stroke-width:1px;stroke-linecap:butt;stroke-linejoin:miter;stroke-opacity:1" />
      <path
         sodipodi:nodetypes="sssss"
         inkscape:connector-curvature="0"
         id="path3872-3"
         d="m 160.55743,179.05368 c 1.45997,-0.8335 5.97143,-0.30992 7.86656,-0.0884 0.87839,0.10267 0.8585,2.21684 0.0884,2.65165 -1.18346,0.66821 -6.66899,0.56577 -7.86656,0.17678 -0.86912,-0.2823 -0.882,-2.28696 -0.0884,-2.74003 z"
         style="fill:#9b9b9b;fill-opacity:1;stroke:#000000;stroke-width:1px;stroke-linecap:butt;stroke-linejoin:miter;stroke-opacity:1" />
      <path
         sodipodi:nodetypes="sssss"
         inkscape:connector-curvature="0"
         id="path3852"
         d="m 168.55658,173.92715 c 0.84385,-0.26298 0.74831,2.18124 0,2.65165 -0.59828,0.37609 -6.78337,4.66415 -7.77818,4.86136 -0.78031,0.15469 -0.60558,-1.87065 0,-2.38649 1.03048,-0.87777 6.54686,-4.74279 7.77818,-5.12652 z"
         style="fill:#520000;fill-opacity:1;stroke:#000000;stroke-width:1px;stroke-linecap:butt;stroke-linejoin:miter;stroke-opacity:1" />
      <path
         sodipodi:nodetypes="csccc"
         inkscape:connector-curvature="0"
         id="path3910"
         d="m 168.82174,176.49041 c 0,0 -8.62432,4.73088 -7.86656,5.12652 0.74204,0.38743 7.51301,0.0884 7.51301,0.0884 l 7.51301,-4.86136 z"
         style="fill:#550000;fill-opacity:1;stroke:#000000;stroke-width:1px;stroke-linecap:butt;stroke-linejoin:miter;stroke-opacity:1" />
      <path
         sodipodi:nodetypes="sssss"
         inkscape:connector-curvature="0"
         id="path3872-3-1"
         d="m 169.17812,173.77949 c 1.45997,-0.8335 5.97143,-0.30992 7.86656,-0.0884 0.87839,0.10267 0.8585,2.21684 0.0884,2.65165 -1.18346,0.66821 -6.66899,0.56577 -7.86656,0.17678 -0.86912,-0.2823 -0.882,-2.28696 -0.0884,-2.74003 z"
         style="fill:#700000;fill-opacity:1;stroke:#000000;stroke-width:1px;stroke-linecap:butt;stroke-linejoin:miter;stroke-opacity:1" />
    </g>
    <path
       style="fill:#fafac8;fill-opacity:1;stroke:#6e6e4b;stroke-width:1.48628736px;stroke-linecap:butt;stroke-linejoin:miter;stroke-opacity:1"
       d="m 189.93185,1015.7724 c 0,0 0.26422,-7.7157 2.91355,-7.329 3.07519,0.4487 4.16186,5.8968 3.93925,9.3153 -0.24275,3.7276 -2.82889,7.1802 -5.56749,9.3738 -2.37208,1.9 -8.48378,2.5388 -8.48378,2.5388 l -9.70014,-0.273 -4.75012,-2.7332 0.9721,-3.1818 5.27204,2.6098 3.10194,-0.1281 c 0,0 1.83194,-1.2764 1.0087,-1.4312 -1.28781,-0.2422 -3.62069,-1.1885 -3.62069,-1.1885 l -4.23301,-1.6362 -0.84452,-3.3841 3.31896,0.791 5.67471,2.158 1.59071,-1.4646 -5.4033,-3.0912 -0.52396,-2.6433 3.377,-0.3264 7.01178,3.0437 z"
       id="path3914"
       inkscape:connector-curvature="0"
       sodipodi:nodetypes="csssccccccsccccccccccc" />
  </g>
</svg>
