<?xml version="1.0" encoding="UTF-8" standalone="no"?>
<!-- Created with Inkscape (http://www.inkscape.org/) -->

<svg
   xmlns:dc="http://purl.org/dc/elements/1.1/"
   xmlns:cc="http://creativecommons.org/ns#"
   xmlns:rdf="http://www.w3.org/1999/02/22-rdf-syntax-ns#"
   xmlns:svg="http://www.w3.org/2000/svg"
   xmlns="http://www.w3.org/2000/svg"
   xmlns:sodipodi="http://sodipodi.sourceforge.net/DTD/sodipodi-0.dtd"
   xmlns:inkscape="http://www.inkscape.org/namespaces/inkscape"
   width="228"
   height="216"
   id="svg2"
   version="1.1"
   inkscape:version="0.48.5 r10040"
   sodipodi:docname="New document 1">
  <defs
     id="defs4" />
  <sodipodi:namedview
     id="base"
     pagecolor="#ffffff"
     bordercolor="#666666"
     borderopacity="1.0"
     inkscape:pageopacity="0.0"
     inkscape:pageshadow="2"
     inkscape:zoom="0.70710678"
     inkscape:cx="132.03948"
     inkscape:cy="209.65505"
     inkscape:document-units="px"
     inkscape:current-layer="layer3"
     showgrid="false"
     inkscape:window-width="1920"
     inkscape:window-height="955"
     inkscape:window-x="-9"
     inkscape:window-y="-9"
     inkscape:window-maximized="1" />
  <metadata
     id="metadata7">
    <rdf:RDF>
      <cc:Work
         rdf:about="">
        <dc:format>image/svg+xml</dc:format>
        <dc:type
           rdf:resource="http://purl.org/dc/dcmitype/StillImage" />
        <dc:title></dc:title>
      </cc:Work>
    </rdf:RDF>
  </metadata>
  <g
     inkscape:label="Face"
     inkscape:groupmode="layer"
     id="layer1"
     style="display:inline"
     transform="translate(0,-836.36218)">
    <path
       style="fill:none;stroke:#000000;stroke-width:5;stroke-linecap:butt;stroke-linejoin:miter;stroke-miterlimit:4;stroke-opacity:1;stroke-dasharray:none"
       d="m 24.071066,905.02026 c 0,0 24.48886,16.26722 38.57143,18.57143 18.94394,3.09963 42.553304,5.33213 57.142864,-7.14286 12.42849,-10.62714 13.57142,-47.14285 13.57142,-47.14285"
       id="path3766"
       inkscape:connector-curvature="0"
       sodipodi:nodetypes="cssc" />
    <path
       style="fill:#fafac8;fill-opacity:1;fill-rule:nonzero;stroke:#6e6e4b;stroke-width:0.35355338;stroke-linejoin:miter;stroke-miterlimit:4;stroke-opacity:1;stroke-dasharray:none"
       d="m 74.459736,922.54614 c -6.17983,-0.80466 -11.73026,-1.67261 -13.6118,-2.12854 -5.77834,-1.40018 -15.43798,-5.87315 -26.08677,-12.07966 -6.25361,-3.64484 -6.44109,-3.78695 -5.74525,-4.35479 0.65966,-0.53832 0.71932,-0.98771 0.71932,-5.41827 l 0,-4.83126 -1.45537,-2.44976 -1.45538,-2.44976 1.32623,-5.39023 c 0.72943,-2.96462 1.42412,-5.49763 1.54376,-5.62891 0.11965,-0.13127 1.88808,-0.4319 3.92985,-0.66807 2.04177,-0.23616 3.84323,-0.54605 4.00325,-0.68865 0.16002,-0.1426 -0.52598,-1.88717 -1.52444,-3.87683 -0.99845,-1.98965 -1.76577,-3.66538 -1.70515,-3.72383 0.0606,-0.0584 3.99232,0.11992 8.7371,0.39637 4.74478,0.27644 8.70782,0.42168 8.80675,0.32275 0.0989,-0.0989 -1.04976,-2.02615 -2.55265,-4.28271 -1.50289,-2.25656 -2.67278,-4.16258 -2.59976,-4.23561 0.073,-0.073 7.50846,0.73817 16.52319,1.80267 9.01472,1.06449 16.47722,1.84862 16.58334,1.7425 0.10612,-0.10612 -0.87562,-2.337 -2.18163,-4.95752 -2.14439,-4.30273 -2.29727,-4.74731 -1.57714,-4.58645 0.43859,0.098 7.63869,1.37685 16.000224,2.84196 8.36154,1.46511 15.65008,2.75532 16.19674,2.86715 l 0.99395,0.20332 -1.10548,-2.18995 c -0.60802,-1.20447 -1.04981,-2.24562 -0.98177,-2.31367 0.068,-0.068 5.05031,3.02558 11.07169,6.87472 7.92128,5.06362 11.0946,7.28253 11.47831,8.02605 0.65306,1.26544 0.61175,3.73925 -0.16476,9.86647 -1.34314,10.59839 -3.73547,19.98362 -6.6227,25.98114 -1.46814,3.0497 -2.23165,4.15297 -4.30452,6.21997 -1.41043,1.40644 -3.72629,3.21683 -5.26012,4.11202 -2.96923,1.73294 -7.77814,3.63894 -8.491,3.36539 -0.24349,-0.0934 -0.63945,-0.9055 -0.87992,-1.80459 -0.37426,-1.39932 -0.56634,-1.63471 -1.33395,-1.63471 -0.49321,0 -6.15631,0.63639 -12.584684,1.41421 -6.42837,0.77782 -11.8891,1.41421 -12.13495,1.41421 -0.24586,0 -0.59466,0.51708 -0.77512,1.14905 -0.3428,1.20049 -0.74489,1.35873 -2.77939,1.09382 l 0,0 z m 21.476404,-8.77385 c 6.84077,-0.32335 11.54721,-1.81094 18.71654,-5.91584 l 2.71628,-1.55525 -0.80221,-1.39585 c -0.44122,-0.76772 -0.9476,-1.36695 -1.12529,-1.33161 -0.17769,0.0354 -1.75497,0.87112 -3.50506,1.85728 -4.20301,2.36838 -7.80649,3.84554 -10.9048,4.47016 -7.70358,1.55304 -30.765074,0.67126 -47.340794,-1.81014 -4.61034,-0.69017 -4.38452,-0.73606 -4.65345,0.94573 -0.12853,0.80377 -0.16622,1.52887 -0.0838,1.61133 0.47423,0.47423 16.53784,2.3452 25.1526,2.92959 9.11656,0.61843 12.26898,0.64653 21.829954,0.1946 l 0,0 z M 69.917656,891.853 c 3.1129,-2.18036 3.21374,-11.0655 0.15641,-13.78168 -1.29114,-1.14707 -3.0945,-0.91635 -4.45682,0.57021 -3.55386,3.87793 -1.85128,13.73103 2.37267,13.73103 0.65228,0 1.51977,-0.2338 1.92774,-0.51956 z m 31.726574,-1.38585 c 3.45192,-1.44231 4.1612,-10.42591 1.08508,-13.74337 -0.69127,-0.7455 -1.22441,-0.96823 -2.31763,-0.96823 -2.65479,0 -4.27079,2.82651 -4.27079,7.46993 0,3.78128 1.12413,6.35509 3.17739,7.27498 1.19498,0.53536 0.95676,0.53877 2.32595,-0.0333 l 0,0 z"
       id="path3843"
       inkscape:connector-curvature="0" />
  </g>
  <g
     inkscape:groupmode="layer"
     id="layer2"
     inkscape:label="Hair"
     transform="translate(0,-836.36218)">
    <path
       style="fill:none;stroke:#000000;stroke-width:3;stroke-linecap:butt;stroke-linejoin:miter;stroke-miterlimit:4;stroke-opacity:1;stroke-dasharray:none"
       d="m 49.213926,909.16312 c 0,0 36.06051,5.71434 53.571434,2.14286 4.90469,-1.00035 13.57143,-6.42857 13.57143,-6.42857"
       id="path3760"
       inkscape:connector-curvature="0"
       sodipodi:nodetypes="csc" />
    <path
       style="fill:#3c2301;fill-opacity:1;stroke:#000000;stroke-width:1px;stroke-linecap:butt;stroke-linejoin:miter;stroke-opacity:1"
       d="m 29.071066,903.02026 -7,6 -10,-24 -9,-1 8,-10 -6,-2 16,-16 -6,-2 31,-14 -5,9 31,-12 -9,11 38.000004,-9 -8,9 22,-4 -4,9 22,-5 -6,6 17,15 -8,-4 10,22 -13,-8 -3,-9 -25,-16 3,6 -34.000004,-6 5,10 -34,-4 6,9 -18,-1 4,8 -8,1 -3,12 3,5 z"
       id="path3768"
       inkscape:connector-curvature="0" />
    <path
       style="fill:#3c2301;fill-opacity:1;stroke:#000000;stroke-width:1px;stroke-linecap:butt;stroke-linejoin:miter;stroke-opacity:1"
       d="m 78.071066,921.02026 -4,14 7,-7 3,8 6,-8 6.000004,7 4,-8 7,6 -4,-15 z"
       id="path3770"
       inkscape:connector-curvature="0" />
    <path
       sodipodi:type="arc"
       style="fill:#000000;fill-opacity:1;fill-rule:nonzero;stroke:#000000;stroke-width:3;stroke-linejoin:miter;stroke-miterlimit:4;stroke-opacity:1;stroke-dasharray:none"
       id="path3772"
       sodipodi:cx="96.5"
       sodipodi:cy="186.36218"
       sodipodi:rx="4.5"
       sodipodi:ry="10"
       d="m 101,186.36218 c 0,5.52285 -2.014719,10 -4.5,10 -2.485281,0 -4.5,-4.47715 -4.5,-10 0,-5.52284 2.014719,-10 4.5,-10 2.485281,0 4.5,4.47716 4.5,10 z"
       transform="matrix(0.71473127,0,0,0.64181937,-0.9256254,765.29328)" />
    <path
       transform="matrix(0.71473127,0,0,0.64181937,31.453056,763.58618)"
       sodipodi:type="arc"
       style="fill:#000000;fill-opacity:1;fill-rule:nonzero;stroke:#000000;stroke-width:3;stroke-linejoin:miter;stroke-miterlimit:4;stroke-opacity:1;stroke-dasharray:none"
       id="path3772-1"
       sodipodi:cx="96.5"
       sodipodi:cy="186.36218"
       sodipodi:rx="4.5"
       sodipodi:ry="10"
       d="m 101,186.36218 c 0,5.52285 -2.014719,10 -4.5,10 -2.485281,0 -4.5,-4.47715 -4.5,-10 0,-5.52284 2.014719,-10 4.5,-10 2.485281,0 4.5,4.47716 4.5,10 z" />
  </g>
  <g
     inkscape:groupmode="layer"
     id="layer3"
     inkscape:label="Shirt"
     style="display:inline"
     transform="translate(0,-836.36218)">
    <path
       style="fill:#a7a7a7;fill-opacity:1;stroke:#434343;stroke-width:2;stroke-linecap:butt;stroke-linejoin:miter;stroke-miterlimit:4;stroke-opacity:1;stroke-dasharray:none"
       d="m 53.923886,935.07447 c 0,0 14.73423,7.67172 31.8198,7.07107 16.463724,-0.57879 31.819814,-9.19239 31.819814,-9.19239 11.98247,34.56343 12.80259,45.75877 17.5844,86.27055 0.85339,6.7008 4.3359,19.7955 4.3359,19.7955 0,0 -6.95787,6.3367 -19.09188,9.1924 -19.02348,4.477 -36.180504,3.5922 -45.266384,3.888 -14.13745,0.4602 -27.56561,0.3546 -27.56561,0.3546 0,0 2.94427,-14.069 3.53554,-21.2132 5.88073,-57.45444 1.80888,-48.24793 2.82842,-96.16653 z"
       id="path3792"
       inkscape:connector-curvature="0"
       sodipodi:nodetypes="cscccssccc" />
    <path
       style="fill:#a7a7a7;fill-opacity:1;stroke:#434343;stroke-width:2;stroke-linecap:butt;stroke-linejoin:miter;stroke-miterlimit:4;stroke-opacity:1;stroke-dasharray:none"
       d="m 117.91704,932.9066 37.93377,-14.89581 33.48402,-40.96562 c 0,0 4.06287,6.36247 7.07106,8.48528 3.89945,2.75174 13.43503,4.94975 13.43503,4.94975 l -38.18376,44.54772 -47.37616,17.67767 z"
       id="path3824"
       inkscape:connector-curvature="0"
       sodipodi:nodetypes="cccscccc" />
    <path
       style="fill:#a7a7a7;fill-opacity:1;stroke:#434343;stroke-width:2;stroke-linecap:butt;stroke-linejoin:miter;stroke-miterlimit:4;stroke-opacity:1;stroke-dasharray:none"
       d="M 53.696066,934.39526 C 32.951366,933.86407 0.9711936,971.85237 0.9711936,971.85237 L 29.074746,1011.163 c 0,0 2.84663,-5.368 5.12132,-7.2677 1.97453,-1.6491 7,-3.25 7,-3.25 l -18.5,-27.50004 30.5,-22.5 c 0,0 1.54413,-16.22326 0.5,-16.25 z"
       id="path3826"
       inkscape:connector-curvature="0"
       sodipodi:nodetypes="sccscccs" />
  </g>
  <g
     inkscape:groupmode="layer"
     id="layer4"
     inkscape:label="Hands"
     transform="translate(0,-836.36218)">
    <path
       style="fill:#fafac8;fill-opacity:1;stroke:#6f6f4b;stroke-width:1px;stroke-linecap:butt;stroke-linejoin:miter;stroke-opacity:1"
       d="m 197.82011,881.33958 -14.14213,-15.9099 1.76777,-6.36396 6.36396,1.06066 3.88908,5.65685 3.53554,-0.35355 6.36396,-9.54594 3.53553,-1.06066 2.12132,3.88908 -2.12132,6.01041 8.13173,-2.82843 4.24264,1.41422 1.06066,4.24264 -5.65685,3.18198 -0.70711,2.82843 7.42462,-0.70711 3.88909,3.53553 -1.76777,3.88909 -9.54594,1.76777 -6.01041,4.59619 z"
       id="path3839"
       inkscape:connector-curvature="0" />
    <path
       style="fill:#fafac8;fill-opacity:1;stroke:#6e6f4b;stroke-width:1px;stroke-linecap:butt;stroke-linejoin:miter;stroke-opacity:1"
       d="m 38.013976,1007.5581 7.07107,-5.3033 7.07107,-0.7071 0.35355,5.3033 -3.18198,2.1214 8.13173,-1.7678 2.47487,2.4749 -2.47487,3.5355 -7.77817,0.7071 -1.41422,1.4142 9.19239,0.3536 2.47487,3.5355 -1.41421,3.5355 -9.19239,-0.3535 -1.41421,1.7678 6.36396,3.1819 0.35355,4.2427 -4.59619,2.1213 -10.25305,-4.5962 -7.07107,-9.1924 z"
       id="path3845"
       inkscape:connector-curvature="0" />
  </g>
</svg>
