<?xml version="1.0" encoding="UTF-8" standalone="no"?>
<!-- Created with Inkscape (http://www.inkscape.org/) -->

<svg
   xmlns:dc="http://purl.org/dc/elements/1.1/"
   xmlns:cc="http://creativecommons.org/ns#"
   xmlns:rdf="http://www.w3.org/1999/02/22-rdf-syntax-ns#"
   xmlns:svg="http://www.w3.org/2000/svg"
   xmlns="http://www.w3.org/2000/svg"
   xmlns:sodipodi="http://sodipodi.sourceforge.net/DTD/sodipodi-0.dtd"
   xmlns:inkscape="http://www.inkscape.org/namespaces/inkscape"
   width="250"
   height="250"
   id="svg2"
   version="1.1"
   inkscape:version="0.48.5 r10040"
   sodipodi:docname="New document 1">
  <defs
     id="defs4" />
  <sodipodi:namedview
     id="base"
     pagecolor="#ffffff"
     bordercolor="#666666"
     borderopacity="1.0"
     inkscape:pageopacity="0.0"
     inkscape:pageshadow="2"
     inkscape:zoom="1"
     inkscape:cx="63.183302"
     inkscape:cy="123.4663"
     inkscape:document-units="px"
     inkscape:current-layer="layer1"
     showgrid="false"
     inkscape:window-width="1536"
     inkscape:window-height="801"
     inkscape:window-x="-8"
     inkscape:window-y="-8"
     inkscape:window-maximized="1" />
  <metadata
     id="metadata7">
    <rdf:RDF>
      <cc:Work
         rdf:about="">
        <dc:format>image/svg+xml</dc:format>
        <dc:type
           rdf:resource="http://purl.org/dc/dcmitype/StillImage" />
        <dc:title></dc:title>
      </cc:Work>
    </rdf:RDF>
  </metadata>
  <g
     inkscape:label="Layer 1"
     inkscape:groupmode="layer"
     id="layer1"
     transform="translate(0,-802.36218)">
    <rect
       style="fill:none;fill-opacity:1;fill-rule:nonzero;stroke:#000000;stroke-opacity:1"
       id="rect3802"
       width="246.9823"
       height="95.964493"
       x="2.0203052"
       y="2.00755"
       transform="translate(0,802.36218)"
       ry="1.7291129" />
    <g
       id="g3791"
       transform="matrix(1.1979305,0,0,1.2283538,-53.829886,-204.0523)">
      <path
         sodipodi:nodetypes="csc"
         transform="translate(0,802.36218)"
         inkscape:connector-curvature="0"
         id="path3755"
         d="m 218.19296,76.758839 c 0,0 -44.60976,16.308378 -59.59902,7.071067 -8.11925,-5.003584 -11.11167,-31.314728 -11.11167,-31.314728"
         style="fill:none;stroke:#000000;stroke-width:2;stroke-linecap:butt;stroke-linejoin:miter;stroke-miterlimit:4;stroke-opacity:1;stroke-dasharray:none" />
      <path
         sodipodi:nodetypes="ccccccccccccccccccccccccccccccc"
         transform="translate(0,802.36218)"
         inkscape:connector-curvature="0"
         id="path3757"
         d="m 145.96704,54.030406 10.10153,-1.515229 -3.03046,-2.020305 12.12183,-3.030457 -2.0203,-2.020306 15.65736,0.505077 -2.52538,-2.525382 16.16244,3.030458 -1.51523,-3.030458 13.13198,12.121831 0.50508,-7.071068 9.09137,21.213204 -0.50507,-13.63706 7.57614,28.284272 -3.53553,-27.274119 -4.04061,-14.647212 -2.02031,6.565991 -9.09137,-13.637059 -1.01015,5.050763 -10.10153,-7.576144 2.52538,6.060915 -16.16244,-9.091373 3.53554,6.565992 -19.1929,-3.030458 5.05076,4.04061 -19.69797,1.515229 5.55583,2.525381 -13.63705,7.071068 6.06091,0 -9.09137,10.606602 z"
         style="fill:#644506;fill-opacity:1;stroke:#000000;stroke-width:1px;stroke-linecap:butt;stroke-linejoin:miter;stroke-opacity:1" />
      <path
         transform="translate(0,802.36218)"
         inkscape:connector-curvature="0"
         id="path3759"
         d="m 166.43999,84.999102 c -3.9772,-0.625385 -7.9957,-2.537216 -9.35988,-4.453031 -1.49397,-2.098081 -3.77504,-7.231203 -4.80317,-10.808616 -0.63953,-2.225259 -3.33169,-14.58468 -3.33169,-15.295424 0,-0.072 1.93192,-0.405148 4.29315,-0.740325 2.36123,-0.335177 4.29315,-0.760579 4.29315,-0.945337 0,-0.184758 -0.59486,-0.696863 -1.32191,-1.138011 -1.3074,-0.793284 -1.26028,-0.817375 4.29315,-2.195109 3.08828,-0.766162 5.61506,-1.548831 5.61506,-1.739263 0,-0.190433 -0.25675,-0.602992 -0.57056,-0.916799 -0.42403,-0.424026 1.4244,-0.496162 7.19734,-0.280879 l 7.76789,0.289679 -0.99644,-1.120699 -0.99644,-1.120699 1.24898,0.291172 c 3.12467,0.728451 11.96189,2.307049 12.92289,2.308425 0.64625,9.24e-4 3.12092,1.900489 6.27287,4.81508 2.86306,2.647455 5.3791,4.636193 5.5912,4.419418 0.2121,-0.216774 0.45764,-1.274573 0.54565,-2.350665 0.14678,-1.794567 0.47206,-1.219674 3.92945,6.944799 2.7693,6.539583 3.99618,8.901329 4.62406,8.901329 0.74076,0 0.81826,-0.420633 0.58164,-3.156727 -0.15015,-1.7362 -0.15229,-3.043085 -0.005,-2.904189 0.31529,0.296829 3.43249,11.756626 3.24811,11.941016 -0.41933,0.419117 -17.74018,5.35093 -22.57275,6.427138 -12.23443,2.724599 -22.58461,3.752708 -28.4672,2.827717 z"
         style="fill:#fffee0;fill-opacity:1;fill-rule:nonzero;stroke:none" />
      <path
         transform="matrix(1,0,0,1.4,-1.5152288,782.16424)"
         d="m 170.71578,59.333706 c 0,2.092094 -1.46985,3.788072 -3.28299,3.788072 -1.81315,0 -3.283,-1.695978 -3.283,-3.788072 0,-2.092095 1.46985,-3.788072 3.283,-3.788072 1.81314,0 3.28299,1.695977 3.28299,3.788072 z"
         sodipodi:ry="3.7880721"
         sodipodi:rx="3.2829957"
         sodipodi:cy="59.333706"
         sodipodi:cx="167.43279"
         id="path3761"
         style="fill:#000000;fill-opacity:1;fill-rule:nonzero;stroke:none"
         sodipodi:type="arc" />
      <path
         transform="matrix(1,0,0,1.4,14.899749,779.38631)"
         d="m 170.71578,59.333706 c 0,2.092094 -1.46985,3.788072 -3.28299,3.788072 -1.81315,0 -3.283,-1.695978 -3.283,-3.788072 0,-2.092095 1.46985,-3.788072 3.283,-3.788072 1.81314,0 3.28299,1.695977 3.28299,3.788072 z"
         sodipodi:ry="3.7880721"
         sodipodi:rx="3.2829957"
         sodipodi:cy="59.333706"
         sodipodi:cx="167.43279"
         id="path3761-1"
         style="fill:#000000;fill-opacity:1;fill-rule:nonzero;stroke:none"
         sodipodi:type="arc" />
      <path
         sodipodi:nodetypes="csc"
         transform="translate(0,802.36218)"
         inkscape:connector-curvature="0"
         id="path3781"
         d="m 165.15994,81.304525 c 0,0 7.59274,-3.771683 11.61676,-5.050763 3.93344,-1.250286 12.12183,-2.525381 12.12183,-2.525381"
         style="fill:none;stroke:#000000;stroke-width:1px;stroke-linecap:butt;stroke-linejoin:miter;stroke-opacity:1" />
      <path
         sodipodi:nodetypes="cscccsccccsccccsccc"
         inkscape:connector-curvature="0"
         id="path3783"
         d="m 157.58379,892.253 c 2.52538,0 15.46224,2.2159 23.23351,2.02031 9.85414,-0.24802 29.29443,-4.04061 29.29443,-4.04061 l 16.66751,13.63705 14.14214,-40.4061 c 0,0 1.51412,2.69201 2.83888,3.25688 1.45421,0.62007 4.73726,-0.22642 4.73726,-0.22642 l -16.66751,55.05331 -20.20306,-14.64721 7.07107,53.03301 c 0,0 -20.0202,5.46576 -30.30457,6.06092 -10.28712,0.59532 -30.80966,-2.52539 -30.80966,-2.52539 l 0.50508,-57.57869 -18.68782,11.61675 -35.35534,-32.82995 c 0,0 2.79628,-1.88637 3.69094,-3.26357 0.82112,-1.264 1.35982,-4.31258 1.35982,-4.31258 l 29.29442,27.27412 z"
         style="fill:#e2ffc9;fill-opacity:1;stroke:#000000;stroke-width:1px;stroke-linecap:butt;stroke-linejoin:miter;stroke-opacity:1" />
      <path
         inkscape:connector-curvature="0"
         id="path3785"
         d="m 165.66502,888.71746 -3.03046,7.57615 5.05076,-1.51523 4.54569,2.52538 4.54569,-2.52538 4.04061,2.0203 0,-7.57614"
         style="fill:#594300;fill-opacity:1;stroke:#000000;stroke-width:1px;stroke-linecap:butt;stroke-linejoin:miter;stroke-opacity:1" />
    </g>
    <flowRoot
       xml:space="preserve"
       id="flowRoot3804"
       style="font-size:22px;font-style:normal;font-variant:normal;font-weight:normal;font-stretch:normal;line-height:125%;letter-spacing:0px;word-spacing:0px;fill:#000000;fill-opacity:1;stroke:none;font-family:Raleway;-inkscape-font-specification:Raleway"
       transform="translate(0,802.36218)"><flowRegion
         id="flowRegion3806"><rect
           id="rect3808"
           width="53.538086"
           height="23.738585"
           x="142.4315"
           y="116.65987" /></flowRegion><flowPara
         id="flowPara3810">over</flowPara></flowRoot>    <flowRoot
       xml:space="preserve"
       id="flowRoot3812"
       style="fill:black;stroke:none;stroke-opacity:1;stroke-width:1px;stroke-linejoin:miter;stroke-linecap:butt;fill-opacity:1;font-family:Raleway;font-style:normal;font-weight:normal;font-size:22px;line-height:125%;letter-spacing:0px;word-spacing:0px;-inkscape-font-specification:Raleway;font-stretch:normal;font-variant:normal"><flowRegion
         id="flowRegion3814"><rect
           id="rect3816"
           width="105.56094"
           height="27.779196"
           x="137.88582"
           y="119.18524" /></flowRegion><flowPara
         id="flowPara3818"></flowPara></flowRoot>    <flowRoot
       xml:space="preserve"
       id="flowRoot3828"
       style="font-size:22px;font-style:normal;font-variant:normal;font-weight:normal;font-stretch:normal;line-height:125%;letter-spacing:0px;word-spacing:0px;fill:#000000;fill-opacity:1;stroke:none;font-family:Raleway;-inkscape-font-specification:Raleway"
       transform="translate(0.50507627,793.27081)"><flowRegion
         id="flowRegion3830"><rect
           id="rect3832"
           width="97.479721"
           height="41.921329"
           x="138.3909"
           y="115.14464" /></flowRegion><flowPara
         id="flowPara3834"
         style="font-size:14px">overflow</flowPara></flowRoot>  </g>
  <g
     inkscape:groupmode="layer"
     id="layer2"
     inkscape:label="Sage" />
</svg>
