<?xml version="1.0" encoding="UTF-8" standalone="no"?>
<!-- Created with Inkscape (http://www.inkscape.org/) -->

<svg
   xmlns:osb="http://www.openswatchbook.org/uri/2009/osb"
   xmlns:dc="http://purl.org/dc/elements/1.1/"
   xmlns:cc="http://creativecommons.org/ns#"
   xmlns:rdf="http://www.w3.org/1999/02/22-rdf-syntax-ns#"
   xmlns:svg="http://www.w3.org/2000/svg"
   xmlns="http://www.w3.org/2000/svg"
   xmlns:sodipodi="http://sodipodi.sourceforge.net/DTD/sodipodi-0.dtd"
   xmlns:inkscape="http://www.inkscape.org/namespaces/inkscape"
   width="220"
   height="160"
   id="svg2"
   version="1.1"
   inkscape:version="0.48.5 r10040"
   sodipodi:docname="sage_css_weights.svg">
  <defs
     id="defs4">
    <inkscape:perspective
       sodipodi:type="inkscape:persp3d"
       inkscape:vp_x="-68.942911 : 63.805826 : 1"
       inkscape:vp_y="0 : 1000 : 0"
       inkscape:vp_z="127.23728 : 20.116728 : 1"
       inkscape:persp3d-origin="114 : 72 : 1"
       id="perspective5367" />
    <linearGradient
       id="linearGradient5229"
       osb:paint="solid">
      <stop
         style="stop-color:#000000;stop-opacity:1;"
         offset="0"
         id="stop5231" />
    </linearGradient>
  </defs>
  <sodipodi:namedview
     id="base"
     pagecolor="#ffffff"
     bordercolor="#666666"
     borderopacity="1.0"
     inkscape:pageopacity="0.0"
     inkscape:pageshadow="2"
     inkscape:zoom="2.8"
     inkscape:cx="95.217723"
     inkscape:cy="93.749539"
     inkscape:document-units="px"
     inkscape:current-layer="layer1"
     showgrid="true"
     inkscape:window-width="1920"
     inkscape:window-height="955"
     inkscape:window-x="1271"
     inkscape:window-y="-9"
     inkscape:window-maximized="1" />
  <metadata
     id="metadata7">
    <rdf:RDF>
      <cc:Work
         rdf:about="">
        <dc:format>image/svg+xml</dc:format>
        <dc:type
           rdf:resource="http://purl.org/dc/dcmitype/StillImage" />
        <dc:title></dc:title>
      </cc:Work>
    </rdf:RDF>
  </metadata>
  <g
     inkscape:groupmode="layer"
     id="layer2"
     inkscape:label="Torso"
     transform="translate(0,-56)">
    <path
       style="fill:#f8eead;fill-opacity:1;stroke:#000000;stroke-width:0.3744947;stroke-linecap:butt;stroke-linejoin:miter;stroke-miterlimit:4;stroke-opacity:1;stroke-dasharray:none"
       d="m 31.665811,135.37946 -14.547631,-5.77771 -5.885525,0.82907 -1.2342993,2.84856 1.8099303,1.67811 -3.0009893,0.1431 -0.994763,2.12183 1.969625,1.19363 -1.471971,0.87059 0.131845,2.03332 1.521577,0.7675 3.0824173,-0.1313 4.295236,2.20337 9.371148,-1.40633 c 0,0 3.011472,-2.25326 3.327416,-3.42906 0.3753,-1.3967 1.625984,-3.94468 1.625984,-3.94468 z"
       id="path5262"
       inkscape:connector-curvature="0"
       sodipodi:nodetypes="ccccccccccccccsc" />
    <path
       style="fill:#bfbfbf;fill-opacity:1;stroke:#323232;stroke-width:1px;stroke-linecap:butt;stroke-linejoin:miter;stroke-opacity:1"
       d="m 94.239306,122.09681 c 0,0 15.207284,2.44345 22.500014,1.60714 7.75293,-0.88908 21.07142,-6.96428 21.07142,-6.96428 0,0 4.72731,11.95717 6.07143,18.21428 2.09852,9.769 2.65383,27.68284 3.03572,29.82143 0.89285,5.00001 5.53571,21.60715 5.53571,21.60715 0,0 -10.49505,7.02078 -16.42857,8.92857 -13.70585,4.40682 -42.857152,5.35714 -42.857152,5.35714 0,0 1.854008,-39.51496 1.785718,-59.28572 -0.0222,-6.43294 -0.71429,-19.28571 -0.71429,-19.28571 z"
       id="path5242"
       inkscape:connector-curvature="0"
       sodipodi:nodetypes="cscsscscsc" />
    <path
       style="fill:#bfbfbf;fill-opacity:1;stroke:#323232;stroke-width:1px;stroke-linecap:butt;stroke-linejoin:miter;stroke-opacity:1"
       d="m 137.81074,116.73967 5,13.21428 29.64286,-13.92857 16.07143,-31.428571 c 0,0 -5.2859,-0.779778 -7.5,-2.142857 -1.79353,-1.104166 -4.28572,-4.642857 -4.28572,-4.642857 l -13.92857,26.785715 z"
       id="path5246"
       inkscape:connector-curvature="0"
       sodipodi:nodetypes="ccccsccc" />
    <path
       style="fill:#bfbfbf;fill-opacity:1;stroke:#000000;stroke-width:1px;stroke-linecap:butt;stroke-linejoin:miter;stroke-opacity:1"
       d="m 94.134706,121.86594 c -9.070081,4.69523 -30.465469,28.25389 -30.465469,28.25389 L 33.167878,136.38252 c 0,0 -0.39782,2.35283 -1.428572,4.64286 -1.002571,2.22742 -4.642857,3.57143 -4.642857,3.57143 l 37.5,17.85714 30.126267,-26.40319 c 0,0 0.5408,-14.76917 -0.58801,-14.18482 z"
       id="path5256"
       inkscape:connector-curvature="0"
       sodipodi:nodetypes="sccscccs" />
    <path
       style="fill:#fafa02;fill-opacity:1;stroke:#000000;stroke-width:1px;stroke-linecap:butt;stroke-linejoin:miter;stroke-opacity:1"
       d="m 13.291068,127.90868 -0.126269,19.06663 c 0,0 1.892606,0.85836 2.904188,0.88389 1.04091,0.0263 3.030458,-0.75762 3.030458,-0.75762 l -0.126269,-19.1929 c 0,0 -1.892304,0.89027 -2.904189,0.88389 -0.971697,-0.006 -2.777919,-0.88389 -2.777919,-0.88389 z"
       id="path5291"
       inkscape:connector-curvature="0"
       sodipodi:nodetypes="ccsccsc" />
    <path
       sodipodi:type="arc"
       style="fill:#fafa02;fill-opacity:1;fill-rule:nonzero;stroke:#000000;stroke-width:0.5;stroke-linejoin:miter;stroke-miterlimit:4;stroke-opacity:1;stroke-dasharray:none"
       id="path5293"
       sodipodi:cx="14.331539"
       sodipodi:cy="75.462524"
       sodipodi:rx="3.3461304"
       sodipodi:ry="1.6414979"
       d="m 17.67767,75.462524 a 3.3461304,1.6414979 0 1 1 -6.692261,0 3.3461304,1.6414979 0 1 1 6.692261,0 z"
       transform="translate(1.9268514,51.688544)" />
    <path
       sodipodi:type="arc"
       style="fill:#fafa02;fill-opacity:1;fill-rule:nonzero;stroke:#000000;stroke-width:0.5;stroke-linejoin:miter;stroke-miterlimit:4;stroke-opacity:1;stroke-dasharray:none"
       id="path5295"
       sodipodi:cx="22.98097"
       sodipodi:cy="143.14275"
       sodipodi:rx="16.414978"
       sodipodi:ry="3.4092643"
       d="m 39.395948,143.14275 a 16.414978,3.4092643 0 1 1 -32.8299556,0 16.414978,3.4092643 0 1 1 32.8299556,0 z"
       transform="translate(-5.2704855,47.395395)" />
    <path
       style="fill:none;stroke:#000000;stroke-width:1px;stroke-linecap:butt;stroke-linejoin:miter;stroke-opacity:1"
       d="M 15.942718,147.73293 5.0835777,192.43218"
       id="path5297"
       inkscape:connector-curvature="0" />
    <path
       style="fill:none;stroke:#000000;stroke-width:1px;stroke-linecap:butt;stroke-linejoin:miter;stroke-opacity:1"
       d="m 15.69018,147.73293 14.520943,44.82552"
       id="path5299"
       inkscape:connector-curvature="0"
       sodipodi:nodetypes="cc" />
    <path
       style="fill:none;stroke:#000000;stroke-width:1px;stroke-linecap:butt;stroke-linejoin:miter;stroke-opacity:1"
       d="m 15.437642,147.73293 1.136422,39.26969"
       id="path5301"
       inkscape:connector-curvature="0"
       sodipodi:nodetypes="cc" />
    <text
       xml:space="preserve"
       style="font-size:40px;font-style:normal;font-variant:normal;font-weight:normal;font-stretch:normal;line-height:125%;letter-spacing:0px;word-spacing:0px;fill:#000000;fill-opacity:1;stroke:none;font-family:Raleway;-inkscape-font-specification:Raleway"
       x="0.75273216"
       y="213.4603"
       id="text5387"
       sodipodi:linespacing="125%"><tspan
         sodipodi:role="line"
         id="tspan5389"
         x="0.75273216"
         y="213.4603"
         style="font-size:22px">#id</tspan></text>
    <path
       sodipodi:type="arc"
       style="fill:#fafa02;fill-opacity:1;fill-rule:nonzero;stroke:#000000;stroke-width:0.5;stroke-linejoin:miter;stroke-miterlimit:4;stroke-opacity:1;stroke-dasharray:none"
       id="path5293-7"
       sodipodi:cx="14.331539"
       sodipodi:cy="75.462524"
       sodipodi:rx="3.3461304"
       sodipodi:ry="1.6414979"
       d="m 17.67767,75.462524 a 3.3461304,1.6414979 0 1 1 -6.692261,0 3.3461304,1.6414979 0 1 1 6.692261,0 z"
       transform="translate(180.21878,-10.183298)" />
    <path
       sodipodi:type="arc"
       style="fill:#fafa02;fill-opacity:1;fill-rule:nonzero;stroke:#000000;stroke-width:0.5;stroke-linejoin:miter;stroke-miterlimit:4;stroke-opacity:1;stroke-dasharray:none"
       id="path5295-1"
       sodipodi:cx="22.98097"
       sodipodi:cy="143.14275"
       sodipodi:rx="16.414978"
       sodipodi:ry="3.4092643"
       d="m 39.395948,143.14275 a 16.414978,3.4092643 0 1 1 -32.8299556,0 16.414978,3.4092643 0 1 1 32.8299556,0 z"
       transform="translate(173.65279,-13.845101)" />
    <path
       style="fill:none;stroke:#000000;stroke-width:1px;stroke-linecap:butt;stroke-linejoin:miter;stroke-opacity:1"
       d="M 194.86599,86.492434 184.00685,131.19168"
       id="path5297-2"
       inkscape:connector-curvature="0" />
    <path
       style="fill:none;stroke:#000000;stroke-width:1px;stroke-linecap:butt;stroke-linejoin:miter;stroke-opacity:1"
       d="M 194.61346,86.492434 209.1344,131.31795"
       id="path5299-6"
       inkscape:connector-curvature="0"
       sodipodi:nodetypes="cc" />
    <path
       style="fill:none;stroke:#000000;stroke-width:1px;stroke-linecap:butt;stroke-linejoin:miter;stroke-opacity:1"
       d="m 194.36092,86.492434 1.13642,39.269686"
       id="path5301-0"
       inkscape:connector-curvature="0"
       sodipodi:nodetypes="cc" />
    <path
       style="fill:#f8eead;fill-opacity:1;stroke:#000000;stroke-width:0.3744947;stroke-linecap:butt;stroke-linejoin:miter;stroke-miterlimit:4;stroke-opacity:1;stroke-dasharray:none"
       d="m 179.52037,74.516132 14.49087,-5.918622 5.8933,0.771905 1.26188,2.836446 -1.79356,1.695596 3.00224,0.113977 1.01531,2.112076 -1.95795,1.21268 1.48035,0.856264 -0.1121,2.034511 -1.51406,0.782232 -3.08355,-0.101381 -4.27365,2.244951 -9.38435,-1.315323 c 0,0 -3.0332,-2.223925 -3.36054,-3.396603 -0.38884,-1.392987 -1.66419,-3.928709 -1.66419,-3.928709 z"
       id="path5262-4"
       inkscape:connector-curvature="0"
       sodipodi:nodetypes="ccccccccccccccsc" />
    <text
       xml:space="preserve"
       style="font-size:40px;font-style:normal;font-variant:normal;font-weight:normal;font-stretch:normal;line-height:125%;letter-spacing:0px;word-spacing:0px;fill:#000000;fill-opacity:1;stroke:none;font-family:Raleway;-inkscape-font-specification:Raleway"
       x="162.5"
       y="151"
       id="text5498"
       sodipodi:linespacing="125%"><tspan
         sodipodi:role="line"
         id="tspan5500"
         x="162.5"
         y="151"
         style="font-size:24px">.<tspan
   style="font-size:22px"
   id="tspan5502">class</tspan></tspan></text>
    <flowRoot
       xml:space="preserve"
       id="flowRoot5504"
       style="font-size:40px;font-style:normal;font-variant:normal;font-weight:normal;font-stretch:normal;line-height:125%;letter-spacing:0px;word-spacing:0px;fill:#000000;fill-opacity:1;stroke:none;font-family:Raleway;-inkscape-font-specification:Raleway"><flowRegion
         id="flowRegion5506"><rect
           id="rect5508"
           width="63.57143"
           height="91.428574"
           x="163.92857"
           y="109.21429" /></flowRegion><flowPara
         id="flowPara5510"></flowPara></flowRoot>  </g>
  <g
     inkscape:groupmode="layer"
     id="layer3"
     inkscape:label="RightHand"
     transform="translate(0,-56)">
    <path
       style="fill:#f8eead;fill-opacity:1;stroke:#000000;stroke-width:0.5;stroke-linecap:butt;stroke-linejoin:miter;stroke-miterlimit:4;stroke-opacity:1;stroke-dasharray:none"
       d="m 30.82655,135.81442 c 2.197909,-0.24214 -4.755208,-7.63039 -5.928737,-8.30848 -0.667498,-0.38569 -4.655103,0.11701 -4.655103,0.11701 l -4.693912,5.50305 c 0,0 1.12069,1.72988 1.947402,1.9612 1.336972,0.37409 2.920423,-3.11047 4.308623,-3.09207 1.064701,0.0141 1.011085,0.48101 2.779594,1.57415 2.05486,1.27013 2.560081,2.65077 6.242133,2.24514 z"
       id="path5258"
       inkscape:connector-curvature="0"
       sodipodi:nodetypes="ssccssss" />
    <path
       style="fill:#f8eead;fill-opacity:1;stroke:#000000;stroke-width:0.5;stroke-linecap:butt;stroke-linejoin:miter;stroke-miterlimit:4;stroke-opacity:1;stroke-dasharray:none"
       d="m 10.891955,130.81287 2.651651,2.65165 2.904189,0.75762 1.26269,1.26269 -0.631345,1.26269 -4.04061,-1.01015 -1.38896,-0.63135 -1.7677673,-1.6415 z"
       id="path5285"
       inkscape:connector-curvature="0" />
    <path
       style="fill:#f8eead;fill-opacity:1;stroke:#000000;stroke-width:0.5;stroke-linecap:butt;stroke-linejoin:miter;stroke-miterlimit:4;stroke-opacity:1;stroke-dasharray:none"
       d="m 8.9979197,134.97975 4.4194173,1.01016 5.177032,0.50507 1.388959,1.38896 -1.388959,1.6415 -5.808377,-0.50508 -3.0304583,-0.63134 -1.894036,-1.13642 z"
       id="path5287"
       inkscape:connector-curvature="0" />
    <path
       style="fill:#f8eead;fill-opacity:1;stroke:#000000;stroke-width:0.5;stroke-linecap:butt;stroke-linejoin:miter;stroke-miterlimit:4;stroke-opacity:1;stroke-dasharray:none"
       d="m 9.8818027,138.64156 7.4498753,1.01015 0.883883,0.75761 -0.252538,1.26269 -7.828682,0.37881 -1.6414983,-0.75761 -0.126269,-1.89404 z"
       id="path5289"
       inkscape:connector-curvature="0" />
    <path
       style="fill:#fafa02;fill-opacity:1;stroke:#000000;stroke-width:1px;stroke-linecap:butt;stroke-linejoin:miter;stroke-opacity:1"
       d="m 191.58299,66.415646 -0.12627,19.06663 c 0,0 1.89261,0.85836 2.90419,0.88389 1.04091,0.0263 3.03046,-0.75762 3.03046,-0.75762 l -0.12627,-19.1929 c 0,0 -1.8923,0.89027 -2.90419,0.88389 -0.97169,-0.006 -2.77792,-0.88389 -2.77792,-0.88389 z"
       id="path5291-7"
       inkscape:connector-curvature="0"
       sodipodi:nodetypes="ccsccsc" />
  </g>
  <g
     inkscape:label="Face"
     inkscape:groupmode="layer"
     id="layer1"
     transform="translate(0,-892.36218)">
    <path
       style="fill:none;stroke:#000000;stroke-width:3.78840804;stroke-linecap:butt;stroke-linejoin:miter;stroke-miterlimit:4;stroke-opacity:1;stroke-dasharray:none"
       d="m 86.847796,944.43839 c 0,1.09981 17.843324,5.49904 17.843324,5.49904 0,0 18.78775,2.40228 25.56653,-3.02447 7.06148,-5.65307 9.58745,-25.84548 9.58745,-25.84548"
       id="path2985"
       inkscape:connector-curvature="0"
       sodipodi:nodetypes="ccsc" />
    <path
       style="fill:#3c260c;fill-opacity:1;stroke:#000000;stroke-width:1px;stroke-linecap:butt;stroke-linejoin:miter;stroke-opacity:1"
       d="m 89.596449,940.60185 -3.928571,10.71429 -9.285714,-14.28572 -7.142857,-2.14286 6.071428,-3.21428 -5.714286,-1.42857 7.142858,-11.42857 -5.357143,-0.71429 11.428571,-15.35714 2.142857,3.92857 15.000004,-8.92857 0.357144,2.85714 17.14286,-4.64286 -1.42857,3.21429 16.07142,-0.35714 -2.85714,4.28571 10,-2.5 -3.21428,3.57143 10,6.78571 -5,1.78572 7.14285,11.78571 -12.14285,-3.57143 0,-5.35714 -17.5,-7.5 1.78571,3.21429 -17.14286,-0.71429 1.42857,1.78571 -15.000001,3.92858 3.214286,1.07142 -9.642857,9.28572 3.214286,1.07143 -3.571429,5 z"
       id="path3755"
       inkscape:connector-curvature="0" />
    <path
       sodipodi:type="arc"
       style="fill:#000000;fill-opacity:1;fill-rule:nonzero;stroke:#6e6e4b;stroke-width:0;stroke-linejoin:miter;stroke-miterlimit:4;stroke-opacity:1;stroke-dasharray:none"
       id="path3761"
       sodipodi:cx="98.035713"
       sodipodi:cy="36.357143"
       sodipodi:rx="1.9642857"
       sodipodi:ry="2.1428571"
       d="m 99.999999,36.357143 a 1.9642857,2.1428571 0 1 1 -3.928572,0 1.9642857,2.1428571 0 1 1 3.928572,0 z"
       transform="matrix(1.3409091,0,0,1.8202096,-27.541776,859.60904)" />
    <path
       sodipodi:type="arc"
       style="fill:#000000;fill-opacity:1;fill-rule:nonzero;stroke:#6e6e4b;stroke-width:0;stroke-linejoin:miter;stroke-miterlimit:4;stroke-opacity:1;stroke-dasharray:none"
       id="path3761-1"
       sodipodi:cx="98.035713"
       sodipodi:cy="36.357143"
       sodipodi:rx="1.9642857"
       sodipodi:ry="2.1428571"
       d="m 99.999999,36.357143 a 1.9642857,2.1428571 0 1 1 -3.928572,0 1.9642857,2.1428571 0 1 1 3.928572,0 z"
       transform="matrix(1.2613636,0,0,1.8097929,-2.1467075,858.47531)" />
    <path
       style="fill:none;stroke:#000000;stroke-width:1.5;stroke-linecap:butt;stroke-linejoin:miter;stroke-miterlimit:4;stroke-opacity:1;stroke-dasharray:none"
       d="m 98.143886,941.6687 c 0,0 10.800814,0.62443 15.872254,0.0297 5.03669,-0.59064 12.91709,-3.43897 12.91709,-3.43897"
       id="path3781"
       inkscape:connector-curvature="0"
       sodipodi:nodetypes="csc" />
    <path
       style="fill:#f8eead;fill-opacity:1;stroke:#000000;stroke-width:0.5;stroke-linecap:butt;stroke-linejoin:miter;stroke-miterlimit:4;stroke-opacity:1;stroke-dasharray:none"
       d="m 201.33501,913.92884 -7.43972,1.0824 -0.87649,0.76616 0.26478,1.26018 7.83199,0.30281 1.63407,-0.77351 0.10788,-1.89517 z"
       id="path5289-0"
       inkscape:connector-curvature="0" />
    <path
       style="fill:#f8eead;fill-opacity:1;stroke:#000000;stroke-width:0.5;stroke-linecap:butt;stroke-linejoin:miter;stroke-miterlimit:4;stroke-opacity:1;stroke-dasharray:none"
       d="m 202.18331,910.25863 -4.4094,1.05299 -5.17189,0.5553 -1.37541,1.40237 1.40482,1.62794 5.8032,-0.56142 3.02419,-0.66073 1.88292,-1.15475 z"
       id="path5287-6"
       inkscape:connector-curvature="0" />
    <path
       style="fill:#f8eead;fill-opacity:1;stroke:#000000;stroke-width:0.5;stroke-linecap:butt;stroke-linejoin:miter;stroke-miterlimit:4;stroke-opacity:1;stroke-dasharray:none"
       d="m 200.24893,906.11033 -2.62579,2.67726 -2.8967,0.78576 -1.25038,1.27489 0.64357,1.2565 4.03062,-1.04932 1.38276,-0.64479 1.75176,-1.65858 z"
       id="path5285-4"
       inkscape:connector-curvature="0" />
    <path
       style="fill:#f8eead;fill-opacity:1;stroke:#000000;stroke-width:0.5;stroke-linecap:butt;stroke-linejoin:miter;stroke-miterlimit:4;stroke-opacity:1;stroke-dasharray:none"
       d="m 180.36381,911.3051 c -2.20015,-0.22079 4.68093,-7.67618 5.84783,-8.36562 0.66372,-0.39215 4.65601,0.0718 4.65601,0.0718 l 4.7471,5.45723 c 0,0 -1.10385,1.74068 -1.92827,1.98001 -1.33328,0.38705 -2.95048,-3.08198 -4.33843,-3.05011 -1.06452,0.0244 -1.00637,0.4908 -2.76419,1.60105 -2.04244,1.29001 -2.53423,2.67549 -6.22005,2.30561 z"
       id="path5258-9"
       inkscape:connector-curvature="0"
       sodipodi:nodetypes="ssccssss" />
    <path
       style="fill:#3e260a;stroke:#000000;stroke-width:1px;stroke-linecap:butt;stroke-linejoin:miter;stroke-opacity:1;fill-opacity:1"
       d="M 110.71429,58.214286 125,56.785714 l 2.5,5 -5,-1.428571 -0.35714,3.928571 -5.35715,-2.857143 L 113.92857,65 112.5,62.142857 l -3.21429,3.571429 z"
       id="path5512"
       inkscape:connector-curvature="0"
       transform="translate(0,892.36218)" />
    <path
       style="fill:#fffbd8;fill-opacity:1;fill-rule:nonzero;stroke:#ffffff;stroke-width:0.02232143000000000;stroke-linejoin:miter;stroke-miterlimit:4;stroke-opacity:1;stroke-dasharray:none"
       d="m 112.15522,56.166806 c -1.86774,-0.04001 -4.50312,-0.208623 -6.5625,-0.419864 -0.47588,-0.04881 -1.92258,-0.394099 -4.6875,-1.118771 -5.462601,-1.431724 -9.95856,-2.747241 -11.702307,-3.424095 l -0.11749,-0.04561 0.551975,-1.504177 c 0.303586,-0.827297 0.53825,-1.526801 0.521475,-1.554452 -0.02528,-0.04167 -6.310519,-7.338856 -6.588139,-7.648856 l -0.08829,-0.09858 1.84114,-2.577561 c 1.012627,-1.417659 1.849318,-2.598874 1.859314,-2.624923 0.01054,-0.02747 -0.623895,-0.261073 -1.510546,-0.556194 l -1.52872,-0.508831 0.318522,-0.294449 c 0.636346,-0.588253 9.300208,-8.949335 9.300208,-8.975189 0,-0.01462 -0.511855,-0.196318 -1.137455,-0.403771 -0.625601,-0.207452 -1.12281,-0.389784 -1.104911,-0.405182 0.0179,-0.0154 3.166473,-0.847128 6.996831,-1.848289 3.830363,-1.001162 6.969693,-1.824906 6.976293,-1.830543 0.007,-0.0056 -0.2517,-0.339668 -0.57401,-0.742291 l -0.58602,-0.732041 0.21687,-0.013 c 0.11928,-0.0071 3.86308,0.139336 8.31955,0.325523 4.45647,0.186188 8.15496,0.332663 8.21886,0.3255 0.11352,-0.01272 0.0995,-0.04307 -0.61206,-1.321758 -0.40053,-0.719804 -0.70104,-1.302393 -0.66781,-1.294643 0.0332,0.0077 3.57776,1.520787 7.87672,3.362305 l 7.81628,3.348215 9.9e-4,2.703073 9.8e-4,2.703073 1.13647,0.332522 c 1.03464,0.302724 1.13468,0.340532 1.11648,0.421926 -0.011,0.04917 -0.0908,0.530167 -0.17746,1.068875 -0.93482,5.815006 -2.55251,11.78983 -4.27355,15.783924 -1.38137,3.205811 -2.92203,5.477702 -4.4984,6.633429 -1.51793,1.112886 -4.054,1.971468 -7.23214,2.448433 -2.61147,0.39192 -5.89983,0.561674 -9.41965,0.486268 l 0,0 z m 0.0893,-5.902309 c 3.00493,-0.221104 5.33004,-0.676854 9.28571,-1.82011 1.58155,-0.457093 5.58259,-1.743774 5.65852,-1.8197 0.0195,-0.01945 -0.43452,-1.370395 -0.47733,-1.420433 -0.0154,-0.01805 -0.55973,0.146013 -1.20954,0.36458 -5.42706,1.825418 -9.49354,2.831779 -12.45379,3.082025 -2.86661,0.24233 -8.89509,0.207234 -14.218749,-0.08278 -0.34375,-0.01873 -0.637668,-0.02252 -0.653151,-0.0084 -0.01548,0.01409 -0.04185,0.359162 -0.05859,0.766818 l -0.03045,0.741194 0.438059,0.02849 c 0.682716,0.0444 3.559601,0.162578 4.991631,0.205042 1.6977,0.05034 7.8991,0.02426 8.72768,-0.03671 l 0,0 z M 104.3106,37.291913 c 0.93385,-0.197884 1.7154,-1.109702 2.06739,-2.411988 0.39608,-1.465366 0.14165,-3.208049 -0.62527,-4.282792 -0.61222,-0.857957 -1.4782,-1.249814 -2.28641,-1.034612 -1.06148,0.282638 -1.90686,1.475217 -2.13946,3.018112 -0.33156,2.199462 0.6789,4.383429 2.17887,4.709272 0.36204,0.07865 0.44226,0.07885 0.80488,0.002 l 0,-10e-7 z m 17.93468,-1.660764 c 0.53047,-0.251941 0.93727,-0.702978 1.27213,-1.410457 1.01694,-2.148595 0.36257,-5.249671 -1.2729,-6.032268 -0.26506,-0.126836 -0.3289,-0.138856 -0.73755,-0.138856 -0.41901,0 -0.46701,0.0097 -0.75732,0.152589 -1.03238,0.508239 -1.71906,1.98981 -1.71906,3.709018 0,1.849028 0.78378,3.39399 1.92885,3.802097 0.36792,0.131131 0.90969,0.09653 1.28585,-0.08212 l 0,0 z"
       id="path5514"
       inkscape:connector-curvature="0"
       transform="translate(0,892.36218)" />
  </g>
</svg>
